<?xml version="1.0" standalone="no"?>
<!DOCTYPE svg PUBLIC "-//W3C//DTD SVG 20010904//EN"
 "http://www.w3.org/TR/2001/REC-SVG-20010904/DTD/svg10.dtd">
<svg version="1.0" xmlns="http://www.w3.org/2000/svg"
 width="800.000000pt" height="800.000000pt" viewBox="0 0 800.000000 800.000000"
 preserveAspectRatio="xMidYMid meet">
<metadata>
Created by potrace 1.14, written by Peter Selinger 2001-2017
</metadata>
<g transform="translate(0.000000,800.000000) scale(0.100000,-0.100000)"
fill="#000000" stroke="none">
<path d="M0 4000 l0 -4000 4000 0 4000 0 0 4000 0 4000 -4000 0 -4000 0 0
-4000z m4320 2300 c320 -50 643 -154 882 -282 221 -119 495 -336 699 -553 193
-207 417 -601 507 -895 45 -145 82 -317 102 -476 19 -145 12 -573 -10 -649 -5
-16 -11 -46 -13 -65 -7 -54 -42 -181 -91 -330 -50 -152 -65 -190 -78 -190 -5
0 -8 -6 -7 -12 1 -7 -2 -23 -7 -36 l-10 -24 -12 27 c-7 15 -8 24 -2 20 5 -3
11 3 11 14 1 12 2 24 3 29 1 4 5 25 10 47 4 22 13 46 18 53 6 7 14 29 19 50
14 67 31 127 41 149 6 12 8 28 5 36 -3 9 0 18 7 20 9 4 16 38 20 109 4 57 12
121 17 142 19 72 28 383 15 481 -3 22 -8 66 -12 99 -3 32 -10 70 -15 83 -5 13
-9 37 -9 52 0 43 -62 274 -110 416 -34 98 -159 360 -198 418 -16 23 -55 81
-85 129 -134 210 -269 356 -477 517 -190 148 -297 215 -465 295 -126 60 -373
148 -455 161 -25 4 -79 16 -120 27 -151 40 -478 65 -629 48 -302 -34 -629
-108 -785 -179 -38 -17 -76 -31 -85 -31 -25 0 -111 -43 -175 -88 -33 -23 -64
-42 -70 -42 -6 -1 -42 -21 -81 -45 -38 -25 -86 -54 -106 -64 -19 -11 -42 -27
-50 -37 -8 -9 -36 -34 -64 -54 -75 -56 -286 -270 -381 -385 -46 -56 -135 -188
-176 -262 -15 -26 -34 -59 -42 -73 -8 -14 -28 -55 -45 -92 -32 -71 -47 -84
-53 -45 -3 19 -4 19 -10 5 -4 -10 -1 -23 7 -32 19 -19 19 -30 0 -46 -21 -17
-42 -90 -28 -98 10 -6 -13 -116 -45 -217 l-10 -30 -10 25 -10 25 -12 -32 c-7
-18 -16 -30 -22 -27 -6 4 -5 10 3 16 11 8 11 9 -1 5 -9 -2 -14 -14 -13 -26 2
-13 -1 -20 -7 -16 -6 4 -10 -5 -10 -19 0 -16 5 -25 13 -24 7 2 11 -6 9 -21 -2
-15 0 -21 7 -17 6 4 11 13 11 20 0 8 7 19 15 26 18 15 20 -3 5 -78 -8 -46 -25
-170 -35 -262 -2 -19 -5 -107 -6 -195 -2 -192 -16 -153 -19 55 -3 161 -5 170
-33 170 -20 -1 -21 -1 -4 -11 15 -9 16 -13 6 -26 -12 -13 -14 -13 -20 4 -6 13
-8 9 -10 -17 -6 -82 -3 -250 4 -250 4 0 7 -7 7 -15 0 -8 -5 -15 -11 -15 -8 0
-10 -15 -5 -47 3 -27 11 -88 17 -138 6 -49 17 -105 25 -123 8 -19 12 -38 9
-42 -8 -14 33 -178 70 -275 35 -96 55 -177 38 -160 -6 6 -18 33 -28 60 -10 28
-28 77 -41 110 -31 82 -69 232 -84 330 -6 44 -16 98 -22 120 -16 66 -22 399
-9 530 30 309 92 540 221 820 18 39 36 80 40 91 16 40 162 269 233 363 97 130
323 365 445 463 146 117 409 273 524 312 26 9 56 20 65 25 50 27 235 85 383
120 115 27 282 52 415 61 126 9 413 3 495 -10z m-360 -180 c0 -11 -4 -20 -10
-20 -5 0 -10 9 -10 20 0 11 5 20 10 20 6 0 10 -9 10 -20z m157 4 c5 -14 -50
-22 -102 -16 -22 3 -35 10 -35 19 0 11 14 13 67 11 38 -2 68 -8 70 -14z m-342
-3 c6 -10 -8 -16 -68 -26 -29 -5 -37 -10 -35 -23 3 -13 15 -17 57 -17 31 0 56
-5 58 -11 4 -11 -40 -24 -83 -24 -13 0 -24 -6 -24 -12 0 -28 17 -37 64 -35 30
1 50 -3 53 -10 5 -14 -104 -30 -117 -17 -5 5 -11 27 -14 50 -2 22 -8 57 -11
77 -4 20 -4 40 0 46 8 13 112 15 120 2z m104 -41 c24 -28 47 -50 52 -50 5 0 9
14 9 31 0 17 4 28 10 24 6 -3 10 -28 10 -56 0 -63 -16 -64 -66 -1 -21 26 -42
49 -47 50 -13 6 -37 33 -37 43 0 22 28 5 69 -41z m375 44 c9 -3 16 -12 16 -18
0 -8 -20 -12 -62 -12 -60 1 -83 10 -72 28 6 9 95 11 118 2z m-647 -49 c1 -16
-1 -22 -3 -13 -4 13 -12 16 -37 11 -75 -14 -76 -15 -63 -80 l12 -58 40 3 c59
4 65 8 58 38 -5 20 -3 26 7 22 8 -2 15 -19 17 -36 4 -34 -10 -45 -69 -56 -47
-8 -69 1 -69 29 0 13 -4 34 -9 47 -5 13 -11 41 -12 63 -4 38 -4 39 41 51 68
19 85 14 87 -21z m826 26 c22 -8 24 -14 22 -63 -2 -29 -3 -65 -4 -80 0 -16 -6
-28 -12 -28 -6 0 -9 14 -7 33 3 32 2 32 -47 38 -60 7 -65 5 -66 -29 -1 -20 -4
-16 -8 13 -5 28 -3 45 8 58 17 21 31 22 31 2 0 -22 76 -21 84 1 9 23 4 26 -54
32 -33 3 -50 9 -50 18 0 16 65 19 103 5z m99 -22 c2 -6 -5 -38 -15 -70 -21
-63 -18 -89 11 -89 22 0 59 -26 50 -35 -11 -12 -108 25 -108 41 0 8 9 40 20
71 11 32 20 65 20 75 0 20 16 25 22 7z m-369 -11 c2 -8 22 -13 53 -13 48 1 64
-7 64 -33 0 -8 -8 -10 -22 -7 -13 3 -44 7 -71 9 -56 4 -61 7 -52 35 7 23 21
28 28 9z m-718 -13 c0 -5 -21 -15 -47 -23 -50 -14 -54 -18 -39 -40 6 -10 17
-11 42 -5 43 11 59 11 60 -2 1 -5 -20 -17 -45 -25 -37 -12 -46 -19 -44 -35 2
-16 9 -19 33 -16 56 8 78 6 82 -6 5 -14 -104 -40 -116 -27 -13 15 -40 97 -43
134 -3 32 -1 35 37 46 45 14 80 14 80 -1z m1231 -16 c3 -6 1 -16 -5 -22 -6 -6
-11 -19 -11 -28 0 -29 -43 -116 -47 -97 -2 9 3 30 11 46 9 17 18 48 22 71 7
41 17 51 30 30z m109 -25 c36 -14 65 -32 65 -38 0 -7 -31 -30 -70 -52 -38 -21
-70 -41 -70 -44 0 -3 14 -11 30 -19 22 -9 34 -10 44 -2 9 7 16 7 24 -1 8 -8
19 7 41 56 28 61 31 65 53 57 48 -19 88 -43 88 -52 0 -6 8 -8 18 -5 21 7 142
-48 142 -65 0 -6 -11 -32 -25 -58 -13 -25 -29 -59 -35 -74 -8 -23 -14 -27 -33
-21 -40 12 -117 54 -117 64 0 8 23 59 50 111 11 21 2 31 -40 47 -63 24 -66 24
-67 2 -1 -14 9 -26 37 -40 70 -36 57 -56 -17 -25 -47 20 -53 19 -53 -9 0 -17
9 -27 30 -36 32 -13 56 -37 47 -46 -11 -12 -117 44 -117 62 0 13 -3 14 -15 4
-15 -13 -60 -3 -118 27 -26 13 -27 16 -14 31 9 9 41 31 71 47 31 17 56 33 56
38 0 13 -53 28 -77 22 -26 -6 -28 -2 -13 26 13 24 7 24 85 -7z m-1502 -24 c24
-19 43 -75 38 -115 -4 -29 -26 -50 -68 -63 -41 -12 -63 -3 -63 28 0 9 -3 20
-7 24 -7 6 -31 90 -33 108 0 11 60 36 86 37 12 1 33 -8 47 -19z m984 -22 c-3
-8 -6 -5 -6 6 -1 11 2 17 5 13 3 -3 4 -12 1 -19z m-312 -56 c6 -4 16 -20 23
-35 11 -25 17 -28 50 -25 34 3 37 6 40 37 l3 33 91 -7 c50 -4 112 -12 137 -19
40 -9 46 -15 49 -39 2 -19 11 -31 28 -38 45 -16 62 -11 66 19 3 23 7 27 33 24
42 -4 207 -52 223 -65 8 -6 12 -21 9 -34 -8 -42 80 -73 90 -33 3 11 11 20 19
20 27 0 105 -32 163 -66 75 -45 88 -59 71 -79 -15 -18 -7 -31 32 -51 28 -15
31 -14 45 5 8 12 20 21 26 21 15 0 129 -79 180 -125 38 -34 39 -36 23 -59 -15
-24 -14 -26 16 -51 28 -24 33 -25 44 -11 23 32 51 17 133 -70 82 -88 95 -115
64 -132 -16 -9 -16 -12 1 -36 22 -34 39 -41 65 -26 18 9 25 7 47 -17 33 -35
124 -183 124 -200 0 -7 -7 -13 -15 -13 -24 0 -28 -25 -11 -58 14 -27 20 -30
49 -25 l34 5 45 -93 c61 -129 65 -147 33 -159 -29 -11 -31 -29 -10 -69 11 -22
20 -27 38 -24 13 3 28 -1 33 -9 10 -13 34 -85 40 -123 2 -11 8 -40 13 -65 6
-29 6 -49 0 -55 -6 -5 -36 -10 -67 -10 l-57 0 -15 75 c-9 41 -22 92 -29 112
-13 40 -9 58 15 58 17 0 18 30 2 65 -8 18 -19 25 -40 25 -15 0 -28 5 -28 11 0
6 -20 53 -45 105 -25 51 -45 97 -45 103 0 5 8 14 17 20 17 9 17 11 0 46 -13
28 -22 35 -39 33 -16 -2 -30 8 -52 40 -17 23 -50 67 -73 97 -47 59 -51 72 -29
89 13 9 11 15 -9 40 -20 25 -26 28 -39 17 -14 -12 -27 -3 -97 65 -44 44 -87
85 -95 92 -10 10 -11 19 -4 32 14 26 14 26 -20 50 -22 16 -34 19 -48 11 -16
-8 -33 1 -98 51 -43 33 -89 64 -102 69 -18 7 -21 14 -16 33 4 18 0 28 -17 40
-28 19 -56 21 -61 4 -3 -8 -39 5 -110 40 -59 28 -111 52 -116 52 -6 0 -12 12
-14 27 -4 36 -61 56 -81 29 -12 -16 -16 -16 -52 -3 -22 8 -77 25 -122 37 -67
18 -82 26 -85 44 -4 29 -72 41 -90 16 -12 -16 -23 -16 -133 -4 -66 7 -123 13
-127 13 -5 1 -8 8 -8 16 0 16 -36 28 -71 23 -16 -2 -25 -11 -27 -25 -3 -20 -9
-22 -70 -22 -37 0 -95 -3 -129 -7 -54 -5 -63 -4 -63 10 0 17 -26 21 -67 10
-15 -4 -23 -14 -23 -28 0 -18 -9 -23 -62 -34 -35 -8 -79 -17 -98 -22 -89 -23
-91 -23 -104 -5 -11 16 -15 16 -49 1 -33 -13 -37 -18 -31 -41 5 -20 3 -26 -7
-24 -8 1 -50 -15 -94 -35 -101 -48 -142 -59 -149 -39 -5 12 -12 11 -43 -8 -21
-12 -40 -24 -42 -25 -2 -2 2 -10 9 -19 7 -9 11 -17 9 -19 -21 -17 -111 -76
-117 -76 -5 0 -19 -11 -31 -24 -27 -28 -68 -41 -85 -27 -9 8 -22 2 -46 -18
-23 -18 -30 -30 -22 -35 14 -8 16 -46 3 -46 -5 0 -42 -34 -82 -75 -65 -67 -77
-75 -102 -71 -22 5 -33 0 -51 -21 -22 -25 -22 -28 -8 -53 15 -26 15 -29 -9
-51 -28 -27 -89 -113 -89 -126 0 -15 -41 -34 -60 -28 -15 5 -23 -2 -37 -29
-15 -33 -15 -37 0 -54 18 -20 23 -42 9 -42 -5 0 -16 -19 -27 -42 -67 -155 -62
-148 -92 -148 -24 0 -31 -6 -42 -37 -13 -35 -12 -37 13 -56 18 -13 24 -23 18
-31 -5 -6 -20 -55 -33 -108 -13 -54 -30 -100 -37 -103 -15 -5 -110 13 -116 23
-5 10 39 192 55 225 10 23 17 27 40 22 23 -5 29 -2 43 26 21 43 20 48 -9 59
-14 5 -25 16 -25 24 0 20 58 153 86 198 21 33 27 37 44 28 10 -5 25 -10 32
-10 16 0 45 72 32 77 -5 2 -15 7 -23 12 -20 13 -7 39 83 163 48 67 70 80 94
56 9 -9 17 -6 37 12 29 27 31 37 9 61 -21 23 -12 37 85 134 l81 79 29 -17 c29
-17 30 -17 57 7 26 22 27 26 16 51 -18 39 -12 45 142 147 48 32 63 34 87 12
17 -15 21 -15 51 -1 29 14 33 21 33 53 0 37 1 38 85 79 117 58 144 63 165 32
16 -24 17 -25 55 -10 35 14 38 19 33 43 -6 35 11 45 115 71 106 27 140 25 154
-6 7 -16 17 -24 26 -20 7 3 27 5 44 5 28 0 30 2 25 30 -4 18 -2 32 6 37 27 17
232 30 252 15z m-965 -21 c0 -6 -4 -13 -10 -16 -5 -3 -10 1 -10 9 0 9 5 16 10
16 6 0 10 -4 10 -9z m138 -3 c23 -23 14 -43 -23 -45 -31 -3 -35 0 -35 20 0 13
3 27 7 30 10 11 38 8 51 -5z m-153 -70 c39 -73 39 -73 67 -54 25 17 58 21 58
7 0 -16 -69 -53 -92 -49 -13 2 -24 11 -26 22 -3 11 -11 26 -19 34 -7 8 -17 27
-20 43 -3 16 -10 32 -14 35 -14 8 -11 26 4 22 6 -2 26 -30 42 -60z m-77 -1
c12 -17 34 -47 47 -66 27 -37 31 -51 15 -51 -6 0 -16 11 -22 25 -14 31 -31 31
-71 3 -18 -12 -33 -22 -35 -23 -1 -1 5 -16 15 -33 10 -17 14 -34 10 -39 -12
-12 -46 37 -58 85 -6 23 -15 45 -20 48 -19 12 -7 33 34 58 23 14 47 25 52 25
6 1 20 -14 33 -32z m2310 -69 c7 -7 12 -23 12 -36 0 -19 -4 -23 -26 -20 -31 3
-50 28 -41 52 7 19 38 21 55 4z m-2478 -7 c0 -5 -10 -15 -21 -23 -21 -14 -21
-14 21 -76 24 -34 40 -65 36 -69 -8 -9 -44 29 -75 80 -23 37 -24 38 -48 22
-25 -17 -48 -9 -35 11 23 35 122 80 122 55z m1567 -25 c56 -9 138 -24 181 -36
175 -44 432 -147 524 -209 25 -17 56 -35 69 -40 28 -11 149 -102 234 -176 152
-131 345 -378 442 -565 90 -174 135 -304 188 -547 5 -21 11 -23 58 -21 28 1
57 5 64 10 13 10 27 -7 18 -22 -9 -15 -145 -13 -149 3 -1 6 -18 73 -36 147
-62 252 -166 470 -323 677 -319 422 -800 696 -1337 762 -109 14 -324 14 -448
0 -669 -74 -1256 -488 -1537 -1084 -125 -264 -174 -487 -176 -797 0 -99 -4
-148 -11 -148 -10 0 -5 331 6 402 31 198 115 457 202 631 82 161 222 345 381
497 143 139 284 238 467 330 231 116 449 179 701 204 79 8 382 -4 482 -18z
m1068 -12 c57 -38 65 -53 40 -74 -8 -7 -15 -17 -15 -23 0 -6 13 1 28 16 l29
27 46 -41 c26 -22 47 -45 47 -50 0 -18 -25 -8 -57 23 -32 31 -33 31 -48 12
-13 -17 -12 -22 20 -52 32 -29 44 -52 29 -52 -3 0 -23 14 -45 32 -21 17 -40
29 -42 27 -1 -2 -9 -12 -16 -22 -12 -15 -9 -21 25 -51 21 -19 36 -38 31 -42
-4 -4 -13 -2 -19 4 -15 15 -31 16 -22 0 4 -7 3 -8 -5 -4 -6 4 -9 11 -6 16 3 5
-6 17 -20 28 -30 24 -31 39 -5 72 20 25 26 45 12 36 -4 -2 -26 9 -50 25 -51
34 -58 35 -72 9 -11 -21 -30 -27 -30 -10 0 10 80 130 87 130 2 0 28 -16 58
-36z m-1117 -54 c252 -30 562 -140 770 -273 52 -33 99 -57 107 -53 8 3 14 2
14 -2 -4 -22 6 -34 49 -63 103 -70 311 -302 417 -464 66 -100 141 -258 186
-390 32 -92 36 -112 25 -124 -28 -28 -93 24 -83 66 4 17 4 17 10 1 4 -10 9
-25 12 -33 2 -8 14 -15 26 -15 19 0 21 4 14 38 -10 57 -89 245 -145 347 -205
369 -597 703 -986 839 -260 90 -385 111 -659 111 -186 -1 -238 -4 -337 -23
-110 -21 -259 -61 -303 -81 -11 -5 -42 -17 -70 -26 -207 -73 -471 -250 -650
-436 -173 -181 -293 -365 -378 -581 -97 -246 -128 -407 -129 -678 0 -216 23
-360 92 -571 172 -521 579 -942 1110 -1146 389 -149 834 -161 1245 -34 205 64
493 221 648 353 31 27 57 45 57 39 0 -5 -6 -14 -14 -18 -8 -4 -35 -27 -60 -50
-24 -24 -49 -43 -55 -43 -5 0 -11 -4 -13 -8 -6 -16 -130 -102 -217 -150 -179
-100 -371 -169 -586 -208 -131 -25 -153 -26 -365 -21 -228 5 -296 13 -460 58
-590 159 -1072 593 -1282 1154 -91 241 -125 451 -115 710 13 330 109 648 280
919 88 142 290 367 421 471 147 117 401 255 571 309 110 36 301 75 415 85 112
10 315 6 438 -9z m-1608 -65 c29 -36 50 -69 47 -72 -10 -10 -56 25 -71 55 -8
15 -23 36 -35 46 -24 22 -27 36 -7 36 8 0 38 -29 66 -65z m-88 28 c10 -9 18
-23 18 -32 0 -12 -3 -12 -12 -3 -18 18 -30 15 -75 -26 l-42 -37 44 -48 45 -48
40 33 c22 18 40 36 40 40 0 15 -20 18 -39 6 -28 -17 -38 -3 -16 22 25 27 49
25 74 -6 l20 -26 -52 -49 c-29 -26 -59 -48 -68 -49 -14 0 -41 28 -98 101 l-21
27 58 56 c31 31 59 56 61 56 3 0 13 -7 23 -17z m1693 -28 c408 -54 774 -235
1064 -526 120 -121 315 -389 283 -389 -4 0 -19 19 -32 42 -70 125 -304 386
-430 481 -359 269 -788 405 -1205 383 -323 -18 -577 -93 -860 -254 -131 -74
-299 -213 -428 -352 -37 -40 -69 -71 -72 -69 -4 5 -1 10 95 119 165 189 426
366 695 469 95 37 292 87 390 100 104 13 386 11 500 -4z m1363 -74 c39 -36 53
-61 34 -61 -5 0 -21 14 -37 30 -33 35 -51 38 -60 11 -4 -13 6 -30 31 -55 l37
-37 22 21 c31 29 48 25 89 -20 42 -46 43 -51 16 -75 -11 -10 -20 -23 -20 -28
0 -14 -61 -67 -77 -67 -16 0 -4 27 23 55 15 15 14 18 -15 47 l-31 31 -21 -27
c-25 -32 -32 -32 -67 -2 -15 14 -43 38 -62 55 -34 29 -34 30 -16 50 10 11 15
25 10 32 -4 8 -3 10 4 5 6 -4 27 11 48 34 20 22 39 40 43 40 3 0 25 -17 49
-39z m-1649 18 c25 -9 31 -16 31 -40 0 -24 -5 -29 -35 -35 -19 -3 -47 -4 -60
-1 -14 2 -28 0 -31 -4 -3 -5 -25 -9 -50 -9 -47 0 -47 0 -38 -24 8 -22 72 -21
96 1 11 9 18 11 18 5 0 -14 36 -16 45 -2 10 17 55 -32 55 -60 0 -27 0 -27 -97
-33 -109 -8 -131 -18 -93 -47 33 -25 154 -32 176 -10 8 8 29 15 47 15 l32 0 2
123 c1 68 3 125 5 127 7 7 201 -16 298 -35 171 -34 419 -127 563 -212 26 -15
52 -28 57 -28 6 0 10 -4 10 -10 0 -5 21 -24 48 -41 26 -18 72 -54 103 -81 31
-26 65 -48 75 -48 24 0 124 -99 124 -123 0 -10 26 -53 58 -95 142 -187 245
-388 297 -578 15 -54 26 -70 96 -140 l78 -78 223 0 c213 -1 224 -2 254 -23 17
-12 37 -23 45 -25 17 -4 29 -18 29 -35 0 -20 -14 -15 -63 22 l-46 35 -223 0
-224 0 -79 86 c-78 85 -81 89 -121 210 -23 68 -61 162 -85 211 -74 147 -241
383 -273 383 -19 0 -116 93 -116 112 0 17 -109 109 -208 177 -232 157 -540
264 -824 287 l-88 7 0 -117 0 -117 28 3 27 3 0 83 0 82 46 0 c52 0 185 -23
269 -47 433 -121 747 -349 985 -713 90 -138 176 -332 215 -487 6 -23 16 -48
23 -55 7 -7 32 -38 57 -68 79 -96 53 -89 329 -90 l244 0 49 -30 c26 -16 55
-30 62 -30 16 0 25 -19 19 -37 -3 -8 -26 2 -65 28 l-60 41 -243 -1 c-278 -2
-245 -12 -348 111 -55 66 -68 89 -91 165 -106 350 -293 622 -581 847 -237 185
-539 309 -833 341 l-63 7 3 -73 c2 -58 6 -74 18 -74 11 0 16 13 18 48 2 26 8
47 13 47 68 0 276 -50 397 -96 154 -58 416 -207 451 -256 8 -12 19 -17 29 -13
9 3 13 3 9 -1 -12 -12 125 -144 150 -144 26 0 103 -103 103 -137 0 -13 15 -44
34 -70 34 -48 146 -263 146 -281 0 -5 7 -22 15 -38 17 -35 65 -211 65 -240 0
-13 34 -53 89 -107 l88 -87 262 0 c259 0 262 0 311 -25 27 -14 56 -25 64 -25
19 0 29 -17 22 -35 -4 -11 -20 -6 -73 25 l-68 39 -265 0 -265 1 -68 68 c-86
85 -103 113 -121 198 -21 99 -78 252 -130 350 -61 115 -128 214 -143 214 -7 0
-23 12 -36 27 -12 14 -32 37 -44 51 -13 14 -23 33 -23 42 0 20 -120 138 -205
200 -202 149 -418 246 -660 295 -122 25 -145 23 -127 -12 8 -15 34 -24 104
-37 164 -31 329 -93 488 -183 136 -77 192 -121 312 -243 156 -158 265 -327
347 -531 31 -79 81 -271 81 -312 0 -15 25 -47 73 -95 l73 -72 167 -7 c149 -5
167 -4 173 11 5 13 23 16 109 16 75 0 106 -4 114 -14 6 -7 22 -13 34 -13 13 0
48 -12 77 -26 30 -14 57 -24 61 -21 10 6 19 -23 13 -41 -5 -12 -12 -10 -37 9
-68 50 -136 71 -152 46 -3 -5 -19 -10 -36 -10 -55 0 -29 -15 32 -18 40 -1 76
-10 109 -27 27 -14 56 -25 65 -25 9 0 15 -9 15 -25 0 -14 -2 -25 -4 -25 -2 0
-30 18 -63 39 l-59 40 -334 0 -334 1 -39 38 c-88 85 -114 131 -131 227 -18 95
-51 218 -67 247 -5 10 -9 23 -9 29 0 22 -102 220 -116 226 -8 3 -14 9 -14 14
0 15 -52 69 -67 69 -11 0 -13 8 -8 30 6 28 -2 38 -117 153 -184 185 -355 289
-618 377 -51 17 -131 32 -138 26 -16 -17 20 -41 84 -56 219 -52 485 -207 639
-372 104 -110 126 -138 178 -221 60 -97 115 -213 150 -317 30 -86 67 -262 67
-313 0 -37 23 -69 117 -169 l44 -48 215 0 c179 0 216 2 220 15 8 20 183 20
210 0 11 -8 29 -15 42 -15 12 0 45 -11 72 -25 27 -14 56 -25 65 -25 8 0 15 -9
15 -20 0 -27 -9 -26 -80 17 -58 34 -64 36 -97 24 -41 -15 -164 -16 -213 -1
-19 5 -129 10 -246 10 l-211 0 -82 91 c-66 75 -81 98 -81 124 0 41 -36 221
-56 284 -34 104 -66 181 -76 181 -5 0 -6 -9 -3 -20 7 -23 -4 -26 -24 -7 -11
10 -13 9 -8 -5 4 -10 2 -18 -4 -18 -7 0 -9 10 -5 25 4 14 2 25 -4 25 -5 0 -11
-8 -11 -17 -1 -17 -2 -17 -6 0 -2 9 -8 17 -13 17 -4 0 -8 6 -7 13 1 43 -4 58
-20 55 -13 -2 -18 4 -18 27 0 72 -215 309 -376 417 -98 66 -239 135 -349 172
-106 34 -124 36 -128 9 -3 -17 3 -23 30 -28 204 -44 469 -197 627 -363 100
-106 212 -295 271 -457 27 -73 62 -239 58 -272 -2 -19 -8 -3 -17 47 -18 105
-76 280 -123 375 -116 230 -339 446 -581 561 -103 48 -130 55 -104 26 18 -19
13 -62 -8 -74 -7 -4 -10 -18 -8 -31 4 -21 13 -25 78 -35 175 -27 355 -139 430
-266 44 -75 84 -209 66 -220 -4 -3 -12 21 -18 53 -10 54 -57 146 -93 181 -59
58 -156 128 -217 157 -101 48 -169 62 -310 63 l-123 0 0 235 0 235 -120 0
-120 0 0 -235 0 -235 -125 0 -125 0 0 235 0 235 -117 0 -118 0 3 -233 4 -234
-138 -6 c-75 -4 -208 -7 -296 -7 l-158 0 0 -114 c0 -91 3 -115 15 -120 8 -3
87 -5 176 -5 121 0 165 -3 174 -13 10 -10 14 -175 17 -735 3 -397 1 -720 -4
-717 -4 3 -8 131 -8 285 0 199 -3 279 -11 279 -7 0 -9 -10 -7 -25 3 -14 1 -28
-3 -31 -5 -3 -9 0 -9 5 0 7 -24 11 -60 11 -54 0 -60 -2 -60 -21 0 -20 4 -21
65 -17 54 3 65 1 65 -12 0 -12 -12 -14 -71 -12 -49 3 -72 8 -76 18 -3 8 -13
14 -22 14 -14 1 -13 3 3 15 18 14 12 15 -66 15 l-85 0 -6 -30 -6 -30 -183 0
-183 0 -42 -40 -41 -40 22 -73 c55 -172 148 -354 239 -467 131 -161 260 -277
417 -374 105 -64 260 -136 294 -136 19 0 26 -5 26 -20 0 -11 -2 -20 -4 -20
-15 0 -242 107 -300 141 -181 107 -359 272 -478 444 -66 95 -139 228 -167 305
-8 19 -19 49 -26 65 -21 50 -39 131 -32 149 4 9 17 20 30 25 14 5 33 21 45 35
l20 26 177 0 c163 0 176 1 173 18 -3 15 -22 18 -185 22 l-181 5 -66 60 -66 60
5 125 c15 417 165 762 455 1050 150 149 335 268 523 336 38 13 47 21 47 40 0
30 -4 30 -92 -5 -155 -62 -348 -174 -348 -202 0 -9 -19 -29 -42 -44 -24 -16
-47 -34 -51 -42 -4 -7 -18 -13 -29 -13 -29 0 -91 -64 -245 -254 -23 -29 -117
-193 -140 -246 -163 -369 -182 -757 -56 -1145 50 -155 199 -425 235 -425 19 0
112 -115 104 -128 -7 -11 122 -137 199 -194 127 -95 284 -182 413 -228 54 -20
65 -21 73 -9 6 10 9 7 9 -13 0 -16 -4 -28 -10 -28 -36 0 -262 106 -370 173
-142 89 -330 255 -330 292 0 8 -4 15 -10 15 -5 0 -20 16 -32 35 -19 30 -27 35
-50 31 -25 -5 -28 -2 -28 20 0 14 -13 44 -29 67 -98 142 -176 314 -221 482
-42 162 -53 256 -47 437 7 198 7 202 36 323 70 292 220 566 417 762 28 29 41
49 37 61 -3 13 6 28 27 45 17 15 27 27 22 27 -17 0 -169 -149 -233 -227 -165
-204 -275 -436 -330 -697 -26 -122 -36 -390 -20 -522 25 -197 92 -399 191
-578 84 -150 164 -257 273 -364 149 -147 305 -259 452 -327 33 -14 74 -33 90
-40 51 -24 167 -63 238 -81 37 -9 67 -20 67 -25 0 -43 -347 86 -533 198 -511
306 -829 885 -804 1463 8 172 28 295 73 440 164 525 572 934 1089 1095 44 14
101 27 126 31 l46 6 -1 -68 c-1 -58 2 -69 17 -72 14 -3 17 4 17 43 0 26 4 44
9 40 5 -3 9 -18 9 -34 -1 -34 8 -51 27 -51 24 0 27 18 26 129 l-2 108 58 10
c81 14 105 15 142 2z m-251 -36 c2 -9 -7 -13 -26 -13 -103 0 -387 -102 -560
-202 -150 -86 -295 -198 -290 -222 5 -21 -94 -117 -113 -111 -21 7 -95 -82
-193 -231 -57 -87 -78 -129 -141 -269 -80 -178 -120 -400 -119 -650 2 -347 89
-634 280 -920 79 -119 142 -195 162 -195 22 0 127 -104 118 -118 -8 -14 73
-84 194 -167 182 -126 444 -235 644 -270 54 -9 101 -14 104 -11 3 3 11 1 19
-6 8 -6 72 -12 162 -15 209 -6 408 22 606 84 175 55 403 173 522 270 23 19 47
33 54 31 9 -3 -143 -128 -157 -128 -3 0 -20 -11 -37 -24 -61 -45 -255 -134
-378 -174 -208 -67 -274 -77 -524 -77 -235 0 -294 5 -420 36 -241 60 -411 135
-612 270 -93 63 -193 147 -193 161 0 17 -81 98 -97 98 -7 0 -13 -4 -13 -10 0
-5 -4 -10 -10 -10 -5 0 -10 8 -10 19 0 10 -36 68 -81 127 -128 172 -202 310
-264 498 -145 433 -115 877 87 1293 53 109 151 270 203 331 11 13 28 33 38 44
9 12 17 28 17 37 0 23 91 121 112 121 10 0 60 34 113 75 192 150 415 261 645
320 101 25 151 28 158 8z m-1236 -98 c33 -35 35 -45 8 -38 -27 7 -123 111
-114 124 6 10 41 -18 106 -86z m1233 65 c3 -5 1 -10 -4 -10 -6 0 -11 5 -11 10
0 6 2 10 4 10 3 0 8 -4 11 -10z m-1296 -66 c34 -31 61 -60 59 -64 -6 -18 -90
-100 -101 -100 -13 0 -127 105 -127 116 0 12 84 102 96 103 6 1 39 -24 73 -55z
m1294 26 c3 -11 1 -23 -4 -26 -5 -3 -9 6 -9 20 0 31 6 34 13 6z m244 -122 c-3
-8 -6 -5 -6 6 -1 11 2 17 5 13 3 -3 4 -12 1 -19z m1918 -68 c38 -52 41 -81 5
-42 l-21 22 -35 -33 c-35 -32 -72 -56 -86 -57 -21 -1 -4 31 30 56 20 15 45 36
55 46 16 16 16 19 3 24 -9 3 -16 12 -16 20 0 29 30 12 65 -36z m-3586 4 c14
-32 15 -30 -31 -39 -34 -6 -38 -5 -38 13 0 56 47 74 69 26z m-51 -82 c27 -22
39 -39 33 -45 -5 -5 -39 -12 -75 -14 -36 -3 -66 -8 -66 -12 0 -3 18 -16 40
-29 22 -12 40 -29 40 -38 0 -17 -8 -14 -55 21 -16 12 -45 30 -63 39 -51 26
-27 46 54 46 76 0 82 12 24 53 -22 16 -38 33 -34 38 7 11 37 -6 102 -59z
m3742 -63 c22 -28 40 -57 40 -65 0 -14 -113 -104 -131 -104 -4 0 -21 17 -36
37 -15 21 -37 45 -47 54 -11 9 -16 21 -12 28 9 15 127 101 138 101 4 0 26 -23
48 -51z m-3864 -76 c35 -26 64 -50 64 -55 0 -16 -28 -7 -63 20 -20 15 -48 35
-62 45 -26 19 -33 37 -14 37 6 0 40 -21 75 -47z m-35 -33 c80 -47 86 -55 65
-79 -9 -10 -16 -22 -16 -27 0 -5 -13 -25 -29 -44 l-28 -34 -34 25 c-19 14 -50
34 -69 44 -19 10 -36 19 -38 20 -5 4 69 135 76 135 3 0 36 -18 73 -40z m4020
-107 c16 -20 49 -88 49 -103 0 -8 -55 -40 -70 -40 -4 0 -18 21 -31 46 -25 47
-26 47 -86 29 -49 -16 -20 17 45 49 81 41 76 40 93 19z m-3607 -105 c-41 -61
-74 -115 -74 -120 0 -5 -11 -25 -24 -46 -13 -20 -39 -74 -57 -119 -35 -87 -54
-109 -23 -26 46 122 220 423 244 423 5 0 -25 -50 -66 -112z m-544 61 l25 -20
-32 6 c-27 5 -33 3 -33 -11 0 -10 -7 -25 -16 -35 -9 -10 -13 -22 -10 -28 7
-11 102 -61 116 -61 5 0 17 16 26 36 17 36 17 37 -6 54 -31 23 -8 38 25 16 14
-9 25 -18 25 -19 0 -11 -51 -107 -59 -112 -12 -7 -151 62 -151 75 0 14 51 120
58 120 4 0 18 -10 32 -21z m4229 -108 c6 -10 8 -21 4 -24 -3 -4 0 -13 6 -21 7
-8 11 -23 8 -33 -4 -16 -5 -16 -11 2 -27 72 -29 74 -60 52 -16 -11 -17 -17 -7
-36 7 -12 11 -30 8 -39 -2 -12 -8 -5 -20 21 -18 41 -35 46 -60 20 -13 -16 -14
-21 -2 -43 8 -14 14 -31 15 -38 0 -22 -17 -4 -25 25 -3 16 -13 35 -21 45 -18
19 -16 21 71 59 74 33 82 34 94 10z m-4326 -71 c-4 -24 -2 -30 11 -30 9 0 24
-4 34 -9 9 -5 32 -15 50 -21 17 -7 32 -16 32 -21 0 -14 -16 -11 -81 16 -63 25
-79 25 -79 -1 0 -8 -5 -14 -11 -14 -11 0 -6 22 19 82 19 42 34 41 25 -2z
m3808 -77 c60 -130 84 -192 77 -199 -3 -2 -13 17 -23 43 -10 27 -35 85 -56
130 -22 45 -39 84 -39 87 0 18 13 -2 41 -61z m576 -20 c14 -58 9 -67 -8 -19
-13 36 -35 46 -56 25 -8 -8 -8 -22 2 -50 9 -23 10 -41 4 -44 -5 -4 -9 -1 -9 5
0 6 -7 26 -14 45 -14 33 -17 34 -40 23 -15 -6 -26 -16 -26 -21 0 -17 24 -82
33 -88 9 -7 80 8 115 24 28 13 36 5 51 -55 15 -63 14 -68 -11 -68 -12 0 -29
-6 -37 -14 -17 -15 -92 -38 -99 -31 -8 8 10 25 26 25 37 0 44 14 32 59 -12 45
-11 45 -58 32 -25 -8 -32 -7 -32 5 0 8 -4 22 -9 32 -24 46 -43 103 -37 109 9
9 126 50 147 52 11 1 19 -13 26 -46z m-4391 -39 c81 -26 104 -36 104 -45 0
-20 -161 28 -168 50 -5 15 5 14 64 -5z m2425 -27 c115 -56 195 -155 199 -247
4 -79 -2 -97 -10 -28 -11 86 -66 171 -142 214 -83 47 -87 48 -290 52 l-198 4
0 -261 c0 -254 1 -261 20 -262 11 -1 25 -2 32 -3 6 -1 13 5 16 12 2 7 -6 12
-22 12 -14 0 -26 5 -26 11 0 7 10 9 25 5 22 -6 25 -3 25 19 0 20 -5 25 -25 25
-14 0 -25 4 -25 8 0 17 13 21 31 11 16 -8 19 -6 19 16 0 20 -5 25 -25 25 -14
0 -25 5 -25 10 0 6 10 10 23 9 12 -1 47 -1 79 -1 51 2 56 4 51 22 -4 15 -14
20 -37 20 -41 0 -56 16 -56 57 l0 33 105 0 c85 0 107 -3 111 -15 5 -11 22 -15
64 -15 l59 0 -2 43 c-2 37 1 42 21 45 27 4 28 12 1 46 -17 22 -67 56 -82 56
-2 0 -1 -27 1 -60 3 -40 1 -60 -7 -60 -11 0 -15 19 -12 58 1 18 -3 22 -29 22
-28 0 -37 -12 -31 -44 1 -5 -1 -16 -5 -25 -5 -11 -10 1 -14 34 -7 64 -3 75 27
75 13 0 22 4 18 10 -3 5 -53 8 -112 7 -78 -1 -107 1 -110 11 -4 9 23 12 111
12 163 0 239 -30 271 -107 8 -18 21 -33 29 -33 9 0 16 -3 16 -7 1 -5 3 -29 5
-55 5 -51 -3 -64 -23 -42 -7 8 -8 14 -3 14 5 0 9 12 8 28 -1 15 -8 27 -15 26
-6 -1 -21 -2 -32 -2 -26 -2 -25 -20 2 -49 12 -13 17 -23 11 -23 -6 0 -13 6
-16 13 -3 8 -9 7 -19 -6 -8 -11 -24 -17 -38 -16 -14 1 -54 1 -90 0 -60 -1 -63
-3 -45 -17 14 -10 32 -13 61 -8 52 7 84 -2 84 -24 0 -14 -7 -17 -40 -14 -25 3
-40 0 -40 -7 0 -16 -25 -14 -39 3 -16 20 -46 13 -46 -10 0 -15 -8 -19 -40 -19
-44 0 -58 -22 -33 -52 10 -13 28 -15 100 -10 134 9 187 41 200 122 2 11 6 15
10 10 9 -15 -17 -84 -43 -111 -30 -32 -77 -44 -171 -44 -45 0 -78 -4 -78 -10
0 -5 -4 -10 -10 -10 -5 0 -10 6 -10 14 0 18 -15 23 -52 18 -21 -3 -28 -10 -28
-27 0 -33 25 -51 47 -34 13 11 17 11 20 2 7 -20 122 -16 194 7 77 23 144 64
204 125 49 48 56 48 25 -3 -28 -45 -76 -86 -140 -120 -90 -47 -134 -55 -272
-48 -67 3 -133 5 -145 6 -23 0 -23 2 -24 153 -1 146 -14 334 -17 255 -1 -21
-6 -38 -10 -38 -5 0 -9 50 -10 111 l-1 111 217 -4 c213 -3 218 -4 273 -31z
m-2439 -26 c13 -5 35 -12 50 -15 41 -9 50 -34 32 -92 -8 -26 -18 -52 -23 -57
-4 -4 -43 2 -85 14 l-76 22 6 36 c17 93 40 115 96 92z m2048 -27 c0 -9 -5 -14
-12 -12 -18 6 -21 28 -4 28 9 0 16 -7 16 -16z m158 -88 c3 -52 1 -58 -12 -47
-8 7 -20 10 -26 6 -10 -6 -14 7 -11 32 3 27 -18 21 -24 -8 -6 -28 -10 -30 -43
-27 -32 3 -38 7 -44 32 -11 53 9 71 44 39 17 -15 18 -15 18 4 0 29 10 34 55
31 l40 -3 3 -59z m-1742 8 c-4 -9 -9 -15 -11 -12 -3 3 -3 13 1 22 4 9 9 15 11
12 3 -3 3 -13 -1 -22z m1844 -24 c0 -5 -2 -10 -4 -10 -3 0 -8 5 -11 10 -3 6
-1 10 4 10 6 0 11 -4 11 -10z m1007 -2 c18 -23 22 -58 8 -58 -7 0 -19 -2 -27
-5 -21 -8 -37 8 -44 43 -6 30 -5 32 24 32 16 0 34 -6 39 -12z m-2882 -77 c-59
-203 -70 -534 -25 -766 79 -409 306 -785 631 -1046 122 -98 217 -157 364 -229
620 -300 1338 -221 1915 212 69 51 102 80 199 171 25 24 31 26 23 11 -16 -30
-173 -176 -257 -239 -108 -80 -192 -130 -310 -186 -515 -243 -1103 -232 -1623
30 -380 192 -700 538 -860 931 -123 300 -161 674 -101 980 18 91 51 210 59
210 4 0 -3 -35 -15 -79z m1885 55 c0 -3 -4 -8 -10 -11 -5 -3 -10 -1 -10 4 0 6
5 11 10 11 6 0 10 -2 10 -4z m1143 -48 c53 -148 73 -241 83 -384 l6 -102 66
-66 65 -66 371 -2 c204 0 379 0 389 0 10 1 40 -9 67 -23 27 -14 56 -25 64 -25
17 0 27 -22 16 -39 -5 -10 -21 -3 -58 24 l-51 36 -398 -1 -398 -1 -77 83 -78
82 0 82 c0 105 -46 314 -95 427 -4 9 -3 17 3 17 5 0 16 -19 25 -42z m-1501
-24 c-9 -16 -10 -14 -9 8 1 15 6 23 11 18 4 -4 4 -16 -2 -26z m1229 -37 c-13
-13 -15 21 -3 50 6 15 8 13 10 -11 2 -16 -1 -33 -7 -39z m-1131 43 c0 -5 -9
-10 -20 -10 -11 0 -20 5 -20 10 0 6 9 10 20 10 11 0 20 -4 20 -10z m1260 -19
c15 8 50 -25 50 -46 0 -22 -31 -51 -42 -39 -3 2 -11 -2 -18 -11 -12 -15 -4
-20 22 -16 4 0 19 -4 33 -9 19 -7 25 -17 25 -40 0 -28 -2 -30 -39 -30 -22 0
-42 -4 -45 -9 -13 -20 7 -40 42 -43 35 -3 37 -5 37 -38 0 -21 -5 -36 -12 -36
-7 -1 -27 -2 -44 -3 -26 -1 -30 -5 -27 -23 2 -18 10 -23 36 -24 40 -1 55 -14
50 -45 -3 -23 -6 -24 -90 -24 l-88 -1 0 33 c0 24 5 33 18 35 9 0 22 2 27 3 6
2 16 3 23 4 18 1 11 46 -8 47 -40 4 -56 16 -55 42 0 24 4 27 38 30 31 3 37 7
37 26 0 19 -7 25 -34 30 -31 6 -34 10 -33 39 2 28 5 32 31 32 36 0 45 20 13
29 -16 4 -26 15 -30 33 -8 40 2 55 30 48 20 -5 26 -1 31 17 5 19 6 20 12 4 3
-10 8 -16 10 -15z m-1270 -41 c0 -5 -7 -10 -15 -10 -8 0 -15 5 -15 10 0 6 7
10 15 10 8 0 15 -4 15 -10z m-1887 -34 c-4 -28 -2 -35 15 -40 28 -9 29 -18 18
-138 l-9 -106 -30 -6 c-25 -5 -28 -10 -23 -28 3 -13 6 -33 6 -45 0 -15 7 -23
22 -25 25 -3 31 -27 41 -165 6 -81 6 -83 -16 -83 -16 0 -19 3 -8 9 11 7 11 15
2 41 -6 18 -11 47 -12 64 l-1 31 -9 -35 c-4 -19 -6 -43 -3 -53 3 -9 -2 -25
-12 -35 -15 -14 -15 -17 -2 -20 9 -2 18 -21 24 -50 8 -39 13 -47 32 -48 33 -2
37 -8 60 -104 12 -47 25 -95 28 -107 4 -13 2 -23 -4 -23 -13 0 -36 59 -52 133
-9 40 -18 57 -29 57 -28 0 -42 -15 -34 -36 6 -17 5 -18 -12 -4 -16 14 -17 13
-12 -5 3 -11 8 -45 11 -75 l6 -55 -15 45 c-44 131 -46 157 -12 162 12 2 22 9
21 16 -1 6 -2 28 -2 47 -2 33 -4 35 -37 35 -43 0 -47 14 -49 154 l-1 101 28 3
c25 3 27 7 27 47 0 42 -1 44 -32 47 -38 3 -38 6 -25 151 8 96 19 119 51 111
21 -5 24 -1 30 30 9 46 27 47 19 2z m-279 -92 c20 -8 21 -24 1 -24 -21 0 -21
-85 0 -94 23 -9 45 22 45 65 0 39 0 39 38 39 51 0 60 -11 52 -70 -7 -58 -23
-81 -42 -61 -11 10 -10 14 5 22 11 7 17 22 17 44 0 32 -3 35 -28 35 -26 0 -27
-2 -25 -39 2 -48 -14 -64 -59 -59 -33 3 -33 3 -36 62 -3 55 1 86 12 86 2 0 11
-3 20 -6z m3190 -60 c-39 -57 -115 -124 -140 -124 -21 0 -6 24 26 43 16 10 55
46 87 81 32 35 60 62 62 60 2 -2 -14 -29 -35 -60z m-1108 -62 c-11 -10 -12 3
-7 63 l6 60 3 -59 c2 -32 1 -61 -2 -64z m1517 -135 l5 -98 54 -60 53 -60 295
-3 c202 -2 298 1 306 8 14 15 202 12 217 -3 6 -6 18 -11 27 -11 8 0 43 -12 77
-27 49 -23 62 -33 65 -54 4 -26 3 -26 -56 17 -58 43 -98 55 -111 34 -7 -12
-175 -14 -175 -2 0 4 -40 9 -89 10 -70 2 -91 -1 -101 -13 -8 -10 -9 -19 -4
-25 5 -5 104 -12 219 -16 177 -6 216 -10 248 -26 21 -10 42 -16 47 -13 14 8
25 -24 13 -36 -6 -6 -31 3 -69 26 -32 19 -65 33 -72 30 -8 -3 -97 -5 -198 -5
-157 0 -184 -2 -184 -15 0 -9 10 -15 23 -16 12 -1 102 -3 200 -5 153 -3 183
-6 217 -24 21 -11 46 -20 54 -20 17 0 29 -27 15 -35 -5 -4 -33 7 -63 24 l-53
31 -197 0 c-183 0 -197 -1 -194 -17 3 -16 23 -19 198 -23 160 -4 201 -8 227
-22 18 -10 39 -18 48 -18 16 0 32 -26 22 -37 -4 -3 -34 8 -69 25 l-63 30 -184
-4 c-101 -1 -186 -5 -189 -8 -15 -16 26 -21 196 -27 151 -4 197 -9 237 -25 51
-19 67 -32 59 -45 -2 -4 -33 6 -69 22 -63 29 -68 29 -239 29 -145 0 -175 -2
-180 -15 -11 -30 -76 -12 -76 22 0 9 8 11 25 7 27 -7 31 -1 15 19 -59 73 -98
115 -146 157 -54 48 -73 57 -86 44 -7 -6 23 -64 33 -64 9 0 149 -136 149 -145
0 -5 -8 -1 -18 8 -23 21 -33 22 -26 2 12 -30 -13 -14 -78 50 -37 36 -69 65
-72 65 -4 0 -6 -13 -6 -30 0 -43 -37 -64 -106 -61 -62 2 -64 1 -181 -109 -41
-38 -79 -70 -84 -70 -23 0 -2 25 91 109 79 73 106 91 130 91 17 0 39 9 50 20
16 16 17 20 4 20 -10 0 -14 7 -12 22 2 16 12 25 33 29 23 5 18 7 -24 8 -43 1
-51 -2 -43 -12 12 -14 12 -57 1 -57 -4 0 -10 6 -12 13 -4 9 -8 8 -16 -3 -7
-10 -29 -14 -86 -13 -80 2 -105 12 -105 44 0 19 21 23 105 20 64 -3 56 12 -81
151 -74 75 -134 142 -134 149 0 8 62 -48 138 -124 128 -128 140 -137 175 -137
42 0 81 16 72 30 -3 4 -22 11 -43 15 -30 6 -49 21 -101 83 l-65 75 2 91 c2
115 1 110 6 105 2 -2 6 -48 9 -102z m-3465 31 c2 -28 -2 -49 -10 -55 -17 -14
-170 -4 -165 10 1 5 34 10 72 11 l70 1 3 43 c4 57 26 50 30 -10z m3034 28 c97
-43 194 -125 242 -206 43 -74 56 -129 56 -249 0 -108 -5 -131 -26 -131 -11 0
-14 25 -14 124 0 69 -4 136 -10 151 -5 14 -12 40 -15 56 -3 17 -10 36 -15 42
-6 7 -19 24 -31 39 -32 43 -133 116 -205 149 -35 16 -62 34 -59 39 9 14 16 13
77 -14z m-3325 -58 c-3 -8 -6 -5 -6 6 -1 11 2 17 5 13 3 -3 4 -12 1 -19z m286
-77 c8 -8 0 -11 -31 -11 l-43 0 6 -37 c11 -62 13 -65 47 -61 17 2 33 -2 35 -8
5 -15 -75 -26 -98 -13 -10 5 -31 9 -48 9 -29 0 -31 3 -32 35 -1 19 -2 45 -2
57 -1 19 5 24 36 29 20 3 40 9 43 12 10 9 74 1 87 -12z m2207 -46 c243 -7 287
-14 383 -62 120 -60 194 -161 184 -251 -3 -24 -10 -49 -17 -55 -9 -9 -10 -1
-5 36 10 68 -14 125 -75 180 -105 95 -180 113 -484 123 l-236 7 0 -27 c0 -14
-4 -26 -10 -26 -13 0 -13 46 1 71 6 12 17 18 27 15 9 -3 114 -8 232 -11z
m-1949 -161 c45 -272 132 -493 287 -734 72 -112 158 -214 278 -330 316 -305
700 -484 1149 -536 320 -37 691 22 1005 161 157 70 394 214 478 293 7 6 19 12
25 12 7 0 7 -3 2 -8 -252 -211 -421 -308 -688 -397 -172 -57 -330 -85 -523
-92 -514 -20 -983 139 -1364 462 -356 302 -587 700 -666 1150 -14 81 -19 153
-9 143 3 -3 15 -59 26 -124z m1733 -103 c0 -116 -2 -219 -6 -229 -3 -9 -7 88
-7 217 -1 129 2 232 5 228 3 -3 7 -101 8 -216z m-2204 145 c0 -51 -6 -43 -14
19 -4 34 -3 45 4 35 5 -8 10 -33 10 -54z m2685 49 c84 -20 100 -30 130 -82 26
-43 35 -133 15 -133 -5 0 -10 18 -10 40 0 29 -4 40 -15 40 -8 0 -15 -6 -16
-12 0 -10 -2 -10 -6 0 -11 27 -33 12 -33 -23 0 -19 -5 -35 -11 -35 -6 0 -9 21
-7 53 3 51 4 52 36 55 38 4 39 8 11 33 -39 34 -91 42 -284 46 -293 6 -264 19
67 31 31 1 87 -5 123 -13z m-430 -15 c3 -5 -3 -10 -14 -10 -12 0 -21 5 -21 10
0 6 6 10 14 10 8 0 18 -4 21 -10z m-2175 -42 c1 -32 15 -37 75 -29 61 9 85 6
85 -10 0 -5 -21 -9 -47 -10 -78 -2 -98 -11 -99 -44 -1 -17 1 -34 4 -40 4 -5 7
-17 7 -25 1 -8 2 -25 3 -38 2 -19 7 -23 30 -20 29 3 30 9 17 67 -5 26 -4 32 6
29 8 -3 15 -13 17 -24 8 -54 13 -64 33 -64 26 0 34 24 21 66 -10 32 -1 56 13
34 11 -18 18 -120 9 -121 -5 0 -18 -2 -29 -5 -11 -2 -43 -7 -72 -10 -59 -7
-52 -17 -72 101 -20 116 -23 155 -12 155 6 0 11 -6 11 -12z m2578 -7 c1 -1 2
-7 2 -14 0 -7 9 -18 20 -25 32 -20 23 -31 -27 -34 -40 -3 -47 -6 -50 -27 -7
-46 -14 -36 -11 14 3 43 6 50 28 56 34 10 27 10 -151 9 -156 -1 -194 4 -183
22 4 6 74 8 188 5 99 -3 182 -6 184 -6z m-403 -11 c3 -5 -1 -10 -9 -10 -8 0
-18 5 -21 10 -3 6 1 10 9 10 8 0 18 -4 21 -10z m-780 -30 c19 4 39 1 53 -8 15
-10 42 -13 87 -10 57 3 65 2 65 -14 0 -14 -6 -16 -30 -12 -36 8 -100 -3 -100
-16 0 -6 29 -10 65 -10 59 0 65 -2 65 -21 0 -15 -4 -19 -16 -15 -9 3 -39 6
-69 6 -48 0 -54 2 -64 28 -11 25 -15 27 -74 26 -92 -1 -95 -2 -99 -26 -3 -22
-8 -23 -112 -26 -97 -2 -108 -1 -96 13 9 11 34 15 101 15 53 0 89 4 89 10 0 6
-17 10 -37 11 -21 1 -47 2 -58 3 -11 1 -55 3 -97 4 -44 1 -78 6 -78 12 0 6 51
10 133 10 73 0 137 4 143 9 12 12 65 19 84 11 8 -4 29 -4 45 0z m936 -7 c5 -5
5 -28 0 -53 l-9 -45 -1 38 c-1 36 -2 37 -41 37 -38 0 -40 -2 -40 -30 0 -16 -5
-30 -11 -30 -10 0 -8 67 4 86 7 12 85 10 98 -3z m142 -2 c13 -13 -2 -34 -16
-23 -7 5 -27 7 -44 5 -29 -5 -33 -9 -33 -34 0 -16 -4 -29 -10 -29 -12 0 -14
83 -2 94 9 10 93 -1 105 -13z m-386 -13 c-3 -8 -6 -5 -6 6 -1 11 2 17 5 13 3
-3 4 -12 1 -19z m380 -75 c-3 -10 -5 -4 -5 12 0 17 2 24 5 18 2 -7 2 -21 0
-30z m153 27 c0 -5 -4 -10 -10 -10 -5 0 -10 5 -10 10 0 6 5 10 10 10 6 0 10
-4 10 -10z m-2683 -32 c-3 -8 -6 -5 -6 6 -1 11 2 17 5 13 3 -3 4 -12 1 -19z
m971 -25 c-3 -55 102 -282 133 -290 22 -6 105 -121 94 -131 -7 -7 -37 24 -66
68 -14 22 -18 23 -33 11 -15 -12 -19 -12 -26 -1 -4 7 -6 19 -3 26 2 6 -13 47
-35 90 -58 117 -93 219 -79 233 15 15 16 14 15 -6z m614 -3 c70 0 78 -2 78
-19 0 -16 -5 -18 -32 -12 -50 10 -98 2 -98 -15 0 -13 12 -15 65 -12 59 3 65 1
65 -17 0 -19 -5 -20 -72 -15 -65 4 -73 7 -76 27 -3 19 -10 22 -78 25 -87 4
-94 2 -94 -21 0 -10 -12 -23 -26 -30 -34 -15 -40 -9 -14 14 11 10 20 24 20 31
0 14 -82 30 -99 19 -6 -3 -11 1 -11 9 0 13 16 16 88 18 48 1 108 0 135 -1 33
-2 47 1 47 10 0 10 3 10 12 1 7 -7 43 -12 90 -12z m-1547 -111 c8 -36 18 -77
23 -90 17 -41 40 -101 67 -174 29 -76 74 -177 107 -240 45 -86 128 -223 143
-235 8 -7 15 -16 15 -21 0 -18 113 -156 226 -275 188 -199 419 -371 664 -492
154 -77 181 -88 305 -130 177 -60 361 -100 570 -123 184 -20 523 0 690 40 22
6 83 20 135 32 206 47 517 182 720 312 109 70 298 217 351 273 48 51 79 76 79
64 0 -12 -136 -149 -201 -201 -183 -151 -293 -226 -450 -307 -383 -199 -793
-289 -1198 -262 -385 26 -707 108 -1000 254 -97 49 -334 199 -370 234 -8 7
-26 21 -40 30 -83 52 -227 186 -336 312 -195 224 -389 574 -476 855 -17 56
-60 242 -58 255 1 14 22 -52 34 -111z m342 79 c-3 -8 -6 -5 -6 6 -1 11 2 17 5
13 3 -3 4 -12 1 -19z m1858 13 c7 -12 -12 -24 -25 -16 -11 7 -4 25 10 25 5 0
11 -4 15 -9z m258 -1 c16 0 26 -4 22 -10 -6 -10 -225 -13 -251 -3 -8 3 -14 10
-14 15 0 7 38 8 108 5 59 -4 120 -6 135 -7z m147 -65 c0 -53 -4 -68 -22 -85
-50 -46 22 -36 108 16 31 19 58 33 60 31 11 -11 -34 -48 -91 -76 -64 -32 -74
-33 -211 -39 -114 -4 -144 -8 -140 -18 3 -7 1 -16 -4 -19 -6 -4 -10 1 -10 10
0 17 -46 39 -61 29 -5 -3 -9 -11 -9 -19 0 -19 -17 -27 -40 -20 -25 8 -17 25
11 25 28 0 21 34 -9 38 -12 2 -22 8 -22 13 0 13 24 11 38 -3 13 -13 14 -9 16
32 1 23 5 25 64 30 52 4 62 2 60 -10 -2 -8 -16 -16 -31 -18 -20 -3 -27 -8 -25
-20 3 -14 20 -18 108 -22 109 -5 129 -1 169 39 17 17 21 33 21 79 0 51 5 72
17 72 2 0 3 -29 3 -65z m150 25 c0 -22 -4 -40 -8 -40 -5 0 -8 17 -6 38 3 45 3
42 9 42 3 0 5 -18 5 -40z m116 -53 c-47 -97 -156 -178 -282 -211 -46 -12 -110
-16 -242 -16 -99 0 -187 3 -196 6 -12 5 -16 20 -14 68 1 59 1 60 7 16 l6 -45
159 -8 c184 -9 266 3 372 53 91 44 181 130 197 189 9 33 13 39 15 22 2 -12 -8
-46 -22 -74z m-1842 18 c20 -50 26 -54 44 -25 7 11 18 20 25 20 12 0 49 -53
81 -117 22 -43 4 -43 -23 0 -11 18 -29 41 -40 51 -19 17 -20 17 -26 -17 -8
-43 3 -66 98 -193 86 -116 104 -133 113 -111 3 10 -21 51 -65 110 -39 51 -71
100 -71 107 0 7 30 -26 66 -74 67 -87 78 -96 88 -73 5 9 7 9 12 -2 5 -10 10
-6 20 15 l13 29 -5 -35 c-2 -19 -10 -66 -18 -103 -13 -67 -13 -69 8 -77 12 -4
58 -11 101 -15 44 -4 91 -9 105 -10 14 -2 86 -4 160 -4 74 -1 141 -5 149 -10
16 -11 17 -18 19 -241 l2 -170 115 0 c109 0 115 -1 115 -20 0 -20 -5 -20 -122
-18 l-123 3 -5 209 -5 209 -75 -2 c-96 -2 -418 25 -455 39 -18 7 -25 15 -21
25 3 8 1 15 -4 15 -6 0 -10 -9 -10 -21 0 -31 -12 -22 -84 65 -84 101 -86 123
-3 33 34 -37 65 -67 68 -67 4 0 9 7 12 15 4 8 -14 38 -42 72 -108 132 -200
280 -236 383 -27 77 -10 82 19 5z m2846 51 c0 -2 3 -11 6 -19 4 -11 -7 -15
-50 -19 -54 -4 -58 -7 -163 -104 -59 -54 -111 -103 -115 -109 -4 -5 -11 -6
-15 -1 -4 4 8 21 27 38 19 17 79 73 133 125 90 85 101 93 138 93 21 0 39 -2
39 -4z m129 -30 c12 -13 18 -26 14 -29 -9 -6 -29 13 -47 41 -13 21 10 13 33
-12z m-3779 -9 c0 -9 -24 -19 -67 -28 -68 -14 -80 -23 -64 -48 9 -14 54 -9
129 14 16 6 22 3 22 -8 0 -11 -17 -19 -59 -28 -72 -14 -84 -21 -75 -43 6 -15
14 -17 45 -12 22 3 57 9 79 12 49 8 56 -11 8 -21 -18 -3 -52 -11 -75 -17 -46
-11 -73 -6 -73 15 0 8 -9 40 -19 73 -11 32 -18 60 -16 62 4 5 135 40 153 41 6
1 12 -5 12 -12z m1975 -7 c3 -5 -1 -10 -9 -10 -9 0 -16 5 -16 10 0 6 4 10 9
10 6 0 13 -4 16 -10z m145 -6 c0 -11 -5 -14 -16 -10 -9 3 -36 6 -60 6 -24 0
-44 5 -44 10 0 6 27 10 60 10 48 0 60 -3 60 -16z m188 -14 c2 -12 -6 -15 -33
-15 -20 1 -38 -2 -41 -7 -7 -11 -44 -10 -44 2 0 6 -11 10 -25 10 -25 0 -32 10
-18 24 4 4 41 5 82 4 59 -2 76 -6 79 -18z m-1158 -11 c0 -5 -4 -9 -10 -9 -5 0
-10 7 -10 16 0 8 5 12 10 9 6 -3 10 -10 10 -16z m93 1 c4 -17 14 -20 70 -20
42 0 69 5 74 13 5 7 10 -5 14 -33 4 -25 3 -49 -2 -54 -5 -6 -9 3 -9 21 l0 31
-120 -2 c-76 0 -119 3 -117 9 2 6 16 11 31 13 18 2 30 11 33 23 7 25 19 24 26
-1z m1983 -30 c-3 -19 -2 -29 4 -25 6 3 10 2 10 -3 0 -6 -7 -13 -16 -16 -10
-4 -13 -13 -9 -28 4 -16 3 -19 -3 -10 -7 11 -11 7 -16 -14 -4 -16 -11 -31 -14
-34 -4 -3 -16 -22 -27 -43 -26 -53 -88 -121 -142 -158 -67 -47 -205 -103 -323
-133 -127 -33 -346 -49 -338 -25 3 9 29 16 79 21 101 10 241 37 319 60 95 30
251 109 309 158 65 55 126 147 149 222 18 62 28 77 18 28z m1153 -6 c30 -11
57 -26 59 -32 6 -19 -25 -14 -71 11 -42 22 -46 22 -416 20 -345 -1 -376 -3
-397 -20 -13 -10 -59 -51 -104 -92 -44 -40 -80 -69 -80 -64 0 5 46 52 101 104
l102 94 162 5 c90 3 259 3 376 -1 181 -4 222 -8 268 -25z m-2409 11 c0 -9 -6
-12 -15 -9 -8 4 -12 10 -9 15 8 14 24 10 24 -6z m-907 -169 c30 -37 31 -38 41
-17 7 17 4 29 -17 58 -25 34 -25 38 -10 55 9 10 20 18 25 18 5 0 2 -7 -6 -16
-14 -14 -14 -18 1 -40 16 -25 16 -25 159 -22 113 2 145 0 149 -10 10 -28 -9
-32 -140 -32 -144 0 -145 -1 -145 -57 0 -15 -5 -23 -12 -21 -19 6 -159 218
-152 230 3 5 22 -17 41 -49 20 -32 49 -76 66 -97z m-963 99 c0 -5 -5 -3 -10 5
-5 8 -10 20 -10 25 0 6 5 3 10 -5 5 -8 10 -19 10 -25z m1268 2 c3 -14 -4 -17
-37 -17 -29 0 -41 -4 -44 -17 -4 -17 -4 -17 -12 0 -4 10 -3 29 3 41 9 20 15
22 49 17 25 -4 39 -12 41 -24z m2975 1 c47 -13 77 -26 77 -35 0 -18 -9 -17
-63 7 -50 22 -78 23 -533 21 l-211 -1 -114 -99 c-124 -109 -164 -130 -53 -29
38 35 91 84 119 111 l50 47 325 -1 c295 -1 332 -3 403 -21z m-4159 -43 c13
-30 19 -35 39 -29 23 5 28 -2 76 -101 52 -110 57 -125 42 -125 -4 0 -28 41
-52 91 -43 87 -45 90 -73 85 -45 -9 -56 -22 -46 -57 13 -44 -4 -26 -20 22 -13
40 -13 42 9 61 21 16 22 22 12 44 -6 14 -11 29 -11 34 0 20 10 9 24 -25z m727
12 c-10 -9 -11 -8 -5 6 3 10 9 15 12 12 3 -3 0 -11 -7 -18z m3424 -22 c77 -23
79 -25 68 -36 -7 -7 -27 -3 -62 11 -48 19 -73 20 -359 20 -336 0 -316 3 -387
-62 -17 -15 -55 -50 -85 -77 -30 -28 -59 -51 -65 -51 -5 1 26 33 70 73 44 40
93 87 110 104 l30 32 315 1 c251 0 325 -3 365 -15z m-2448 -27 c-3 -8 -6 -5
-6 6 -1 11 2 17 5 13 3 -3 4 -12 1 -19z m-1875 -74 c12 -26 17 -27 77 -12 30
7 19 -20 -11 -29 -29 -8 -33 -13 -31 -40 2 -27 -2 -32 -37 -46 -29 -11 -40
-12 -40 -3 0 6 14 17 31 23 25 10 28 15 20 30 -6 10 -15 31 -21 46 -9 25 -13
27 -45 21 -44 -8 -46 9 -2 24 46 15 46 15 59 -14z m3989 15 c47 -16 62 -32 54
-58 -6 -21 -6 -20 -28 3 -12 14 -37 27 -54 31 -29 6 -33 4 -33 -14 0 -11 -4
-23 -10 -26 -13 -8 -13 1 2 42 13 36 19 38 69 22z m205 -42 c17 -9 41 -13 52
-10 16 4 22 1 22 -11 0 -9 -6 -19 -13 -22 -18 -7 -137 53 -137 69 0 24 14 28
30 9 8 -11 29 -27 46 -35z m-1048 -36 c-13 -15 -25 -27 -27 -25 -4 4 39 54 47
54 2 0 -7 -13 -20 -29z m744 -47 c-30 -66 -43 -85 -52 -79 -11 7 10 52 43 97
28 37 31 30 9 -18z m-3757 -4 c3 -5 -1 -10 -10 -10 -8 0 -23 -5 -34 -11 -17
-11 -17 -13 3 -51 15 -28 26 -37 39 -33 9 3 26 8 37 11 11 4 20 2 20 -2 -1
-11 -123 -74 -143 -74 -7 0 -23 20 -35 45 -26 53 -27 65 -8 65 7 0 24 11 38
25 36 36 82 53 93 35z m4007 -21 c48 -24 69 -24 75 1 6 21 18 26 27 11 3 -5
-1 -14 -9 -21 -8 -7 -15 -19 -15 -26 0 -8 -4 -14 -10 -14 -19 0 -150 63 -150
72 0 11 31 2 82 -23z m-4311 -64 c16 -38 29 -74 29 -80 0 -14 -42 61 -63 113
-29 73 2 42 34 -33z m3214 25 c-77 -79 -280 -234 -294 -225 -12 7 -124 -40
-129 -54 -3 -9 -86 -38 -219 -77 -21 -6 -15 -24 7 -24 11 0 69 16 127 35 102
33 128 36 107 15 -13 -13 -114 -49 -184 -66 -30 -7 -62 -15 -71 -19 -14 -5
-17 4 -17 74 l-1 80 34 -6 c29 -5 35 -3 35 12 0 14 3 15 14 6 10 -8 20 -9 33
-3 10 6 37 15 61 21 51 14 58 36 8 28 -22 -4 -36 -1 -39 7 -3 6 -23 11 -46 11
-36 0 -41 2 -39 20 2 15 9 19 31 17 16 -2 27 2 27 9 0 7 13 0 28 -14 28 -27
33 -28 144 -29 l115 -1 61 37 c62 38 206 149 231 179 7 10 16 17 19 17 4 0
-16 -23 -43 -50z m-2720 -31 c14 -26 20 -29 45 -24 22 5 32 1 44 -17 9 -13 39
-54 66 -93 55 -76 68 -120 22 -70 -15 17 -43 53 -62 80 -52 75 -55 76 -98 40
-17 -14 -33 -25 -36 -25 -13 0 -5 44 11 55 15 11 15 14 0 36 -16 22 -23 49
-12 49 2 0 12 -14 20 -31z m2740 -27 c-68 -63 -128 -112 -137 -112 -17 0 -7
-29 12 -35 18 -6 82 31 102 60 4 5 10 7 13 4 3 -4 -17 -25 -45 -49 -27 -23
-50 -49 -50 -56 0 -8 2 -14 4 -14 15 0 99 57 147 99 59 52 88 69 47 28 -173
-175 -420 -310 -705 -385 -40 -11 -73 -17 -74 -13 0 3 -2 25 -5 48 -6 41 -5
42 23 41 56 -1 227 54 355 115 36 17 47 27 48 45 l0 24 -34 -21 c-37 -23 -96
-28 -96 -8 0 7 8 13 18 14 67 4 274 129 384 232 18 17 35 31 38 31 3 0 -18
-22 -45 -48z m1100 -32 c4 -6 5 -13 3 -16 -3 -3 -79 32 -157 73 -1 1 0 6 3 11
7 11 139 -49 151 -68z m-711 35 c11 -8 28 -13 38 -9 23 7 23 -8 0 -29 -16 -15
-21 -15 -38 -2 -29 22 -47 18 -69 -15 -18 -27 -45 -41 -45 -23 0 15 66 92 80
92 8 0 24 -6 34 -14z m926 -9 c0 -3 -4 -8 -10 -11 -5 -3 -10 -1 -10 4 0 6 5
11 10 11 6 0 10 -2 10 -4z m-2269 -22 c5 -3 9 -30 9 -60 0 -37 -4 -53 -11 -49
-6 4 -9 23 -7 44 l3 36 -118 0 c-100 0 -117 2 -117 16 0 9 2 18 5 21 7 6 224
0 236 -8z m-1891 -4 c0 -5 -7 -10 -15 -10 -8 0 -15 5 -15 10 0 6 7 10 15 10 8
0 15 -4 15 -10z m3340 -8 c0 -5 -9 -17 -21 -28 -21 -19 -21 -19 -8 9 12 26 29
37 29 19z m787 -14 c-3 -8 -6 -5 -6 6 -1 11 2 17 5 13 3 -3 4 -12 1 -19z
m-3198 -27 c113 -94 374 -241 434 -244 18 -2 27 -8 27 -19 0 -10 -1 -18 -3
-18 -9 0 -138 55 -189 81 -143 72 -368 239 -322 239 3 0 27 -17 53 -39z m1951
24 c-7 -8 -18 -15 -24 -15 -6 0 -2 7 8 15 25 19 32 19 16 0z m713 4 c33 -17
67 -51 61 -61 -3 -5 -23 1 -44 13 -41 23 -66 20 -77 -8 -10 -28 -83 -121 -99
-127 -28 -11 -13 25 37 86 28 35 56 73 62 86 11 25 28 28 60 11z m-3653 -12
c0 -7 11 -29 25 -50 25 -37 26 -37 55 -22 35 18 40 19 40 3 0 -14 -74 -48
-102 -48 -9 0 -20 -4 -23 -10 -13 -21 -31 -8 -58 40 l-28 50 23 9 c13 5 30 16
37 25 16 19 31 21 31 3z m3831 2 c11 -5 30 -11 42 -13 12 -1 39 -10 61 -20 29
-13 36 -20 27 -29 -9 -9 -16 -9 -31 1 -11 6 -27 12 -35 12 -22 0 -95 38 -95
50 0 13 7 13 31 -1z m-1983 -27 c45 2 67 -1 69 -9 3 -9 -19 -13 -76 -15 -108
-4 -110 -22 -3 -26 64 -2 82 -6 82 -17 0 -12 -17 -15 -86 -15 -64 0 -85 -3
-82 -12 3 -9 32 -14 85 -16 71 -2 82 -5 86 -22 3 -11 3 -29 0 -40 -5 -18 -14
-20 -84 -20 -64 0 -79 -3 -79 -15 0 -11 12 -15 48 -16 89 -2 105 -4 109 -16 4
-10 -17 -13 -82 -13 -65 0 -86 -3 -83 -12 3 -9 32 -14 86 -16 57 -2 82 -7 82
-15 0 -9 -19 -12 -70 -9 -84 5 -108 -1 -90 -23 9 -11 33 -15 86 -15 40 0 76
-4 79 -10 4 -6 -25 -10 -79 -10 -51 0 -86 -4 -86 -10 0 -5 -4 -10 -10 -10 -6
0 -10 73 -10 200 0 201 0 201 21 189 12 -6 50 -9 87 -7z m1972 -7 c7 -8 16
-15 21 -15 14 0 99 -61 99 -71 0 -14 -7 -11 -70 32 -49 33 -63 38 -79 30 -28
-16 -30 -14 -18 14 14 28 29 32 47 10z m-2412 -17 c3 -17 -54 -28 -149 -28
-33 0 -59 -3 -59 -8 0 -4 27 -22 60 -40 42 -22 73 -32 104 -32 31 0 46 -5 50
-16 8 -21 8 -22 -36 -25 -23 -2 -43 3 -55 13 -10 8 -38 26 -63 38 -73 36 -129
74 -126 85 2 6 43 10 99 10 60 0 100 4 108 12 16 16 63 9 67 -9z m1922 -8 c-6
-11 -13 -20 -16 -20 -2 0 0 9 6 20 6 11 13 20 16 20 2 0 0 -9 -6 -20z m808
-19 c-7 -11 -17 -21 -22 -21 -5 0 -1 9 8 19 11 12 15 25 11 33 -6 10 -5 10 4
2 10 -9 10 -16 -1 -33z m-1088 22 c-1 -14 -30 -47 -36 -41 -3 3 3 16 13 27 19
23 23 25 23 14z m-47 -63 c6 -23 -2 -33 -18 -20 -8 6 -29 -2 -65 -25 -30 -19
-58 -35 -62 -35 -19 0 -6 31 20 47 15 9 39 27 54 39 31 25 64 22 71 -6z m76
-6 c-38 -40 -170 -145 -236 -187 -207 -132 -511 -236 -728 -249 -47 -2 -60 0
-62 12 -3 12 10 15 64 17 271 6 715 195 938 398 60 54 72 59 24 9z m129 -3 c3
-20 1 -21 -18 -11 -18 10 -27 6 -69 -29 -52 -44 -61 -48 -61 -28 0 6 23 33 52
58 57 50 90 54 96 10z m-1248 -101 c0 -80 -4 -130 -10 -130 -6 0 -10 45 -10
114 0 103 5 146 16 146 2 0 4 -58 4 -130z m-1790 85 c0 -8 -4 -15 -10 -15 -5
0 -10 7 -10 15 0 8 5 15 10 15 6 0 10 -7 10 -15z m3684 -55 c10 0 13 -6 10
-15 -9 -22 -20 -19 -79 25 -71 53 -71 70 0 25 30 -19 61 -35 69 -35z m-3819
10 c14 -15 21 -17 32 -9 16 14 18 -2 2 -18 -11 -11 13 -56 63 -117 21 -25 27
-27 46 -17 25 13 20 32 -17 65 -12 11 -21 26 -21 35 0 11 13 3 36 -22 25 -27
42 -37 55 -34 27 7 24 -5 -8 -28 -14 -11 -35 -29 -45 -40 -19 -20 -20 -20 -58
25 -22 25 -40 50 -40 55 0 6 -20 33 -45 61 -39 46 -47 64 -25 64 4 0 15 -9 25
-20z m80 10 c-3 -5 -12 -10 -18 -10 -7 0 -6 4 3 10 19 12 23 12 15 0z m304
-28 c19 12 27 6 106 -72 47 -46 85 -90 85 -98 0 -21 -29 0 -100 72 -36 36 -68
66 -72 66 -4 0 -23 -14 -42 -30 -36 -32 -62 -25 -32 9 21 23 20 34 -4 56 -11
10 -20 23 -20 28 0 6 13 -2 29 -17 25 -24 31 -26 50 -14z m3276 -2 c22 -24 51
-26 63 -3 9 15 12 14 41 -6 37 -27 42 -49 5 -24 -25 16 -27 16 -44 -7 l-18
-23 -41 34 c-22 19 -41 37 -41 42 0 13 17 7 35 -13z m-3446 -29 c46 -58 37
-72 -14 -21 -47 48 -54 60 -31 60 8 0 28 -18 45 -39z m2600 13 c-19 -24 -79
-60 -183 -112 -154 -76 -279 -117 -450 -147 -73 -13 -91 -14 -97 -3 -14 21
-11 23 45 25 135 3 398 92 576 192 111 63 131 71 109 45z m579 -31 c33 -22 61
-54 62 -70 0 -20 -14 -15 -40 12 -13 14 -31 25 -40 25 -9 0 -48 -29 -86 -65
-65 -62 -94 -78 -94 -54 0 8 158 167 168 169 1 0 15 -8 30 -17z m-138 -38
c-13 -14 -28 -25 -33 -25 -12 0 34 47 47 49 5 1 -1 -10 -14 -24z m366 -40 c26
-25 51 -45 56 -45 4 0 8 -7 8 -15 0 -21 -17 -19 -25 3 -6 19 -78 72 -98 72 -7
0 -28 -15 -46 -34 l-32 -33 47 -42 c26 -22 50 -41 55 -41 4 0 22 12 40 27 l32
27 -29 -42 c-16 -23 -32 -41 -36 -42 -4 0 -33 24 -64 54 -39 37 -54 58 -48 67
19 33 70 89 80 89 7 0 33 -20 60 -45z m83 14 c13 -17 21 -33 17 -36 -8 -9 -56
37 -56 54 0 20 13 15 39 -18z m-3429 -4 c0 -8 -4 -15 -10 -15 -5 0 -10 7 -10
15 0 8 5 15 10 15 6 0 10 -7 10 -15z m3511 -53 c-12 -22 -41 -48 -41 -36 0 8
40 54 47 54 2 0 -1 -8 -6 -18z m-1623 -26 c4 -18 -1 -18 -153 -16 -86 1 -113
8 -102 27 3 4 61 7 129 6 103 -1 124 -4 126 -17z m-1799 0 c73 -64 149 -142
145 -148 -7 -12 -24 -10 -24 2 0 14 -80 88 -102 96 -10 3 -18 12 -18 20 0 26
-36 14 -75 -26 -45 -46 -55 -49 -55 -16 0 29 16 42 33 28 8 -6 21 1 42 23 36
39 34 39 54 21z m3101 -27 c0 -5 -8 -12 -17 -16 -10 -3 -34 -17 -53 -31 -33
-23 -32 -22 9 21 41 42 61 51 61 26z m-2873 -11 c22 -20 24 -21 42 -4 19 17
23 15 120 -54 93 -66 117 -90 92 -90 -14 0 -79 39 -131 77 -49 38 -80 39 -95
6 -5 -13 -15 -23 -22 -23 -16 0 -17 26 -2 36 7 4 -2 19 -22 40 -36 37 -20 48
18 12z m1203 10 c17 -11 22 -10 30 1 10 18 35 1 43 -29 4 -17 0 -18 -47 -13
-28 3 -73 11 -101 18 -52 13 -49 17 25 28 14 3 26 5 28 6 1 0 11 -5 22 -11z
m1940 -8 c0 -5 -5 -10 -11 -10 -5 0 -7 5 -4 10 3 6 8 10 11 10 2 0 4 -4 4 -10z
m-544 -49 c-24 -25 -26 -32 -16 -51 19 -36 0 -37 -29 -1 -25 31 -30 33 -52 21
-13 -7 -37 -24 -53 -37 -31 -26 -99 -63 -116 -63 -5 0 -10 8 -10 18 0 10 24
30 62 52 34 19 75 46 91 59 28 23 30 24 57 8 26 -16 29 -16 51 3 36 30 46 24
15 -9z m-1475 -1 c29 0 39 -4 39 -16 0 -12 -9 -14 -42 -12 -38 3 -43 6 -45 28
-1 14 0 19 3 13 3 -7 23 -13 45 -13z m226 -47 c-3 -10 -5 -2 -5 17 0 19 2 27
5 18 2 -10 2 -26 0 -35z m1609 22 c7 -17 -53 -93 -73 -94 -7 -1 -13 8 -13 19
0 11 5 20 12 20 19 0 57 41 51 56 -3 8 0 14 6 14 7 0 14 -7 17 -15z m-3226
-50 c19 -19 41 -35 48 -35 6 0 12 -7 12 -15 0 -8 -6 -15 -12 -15 -15 0 -98 77
-98 91 0 17 16 9 50 -26z m1429 16 c16 6 46 9 68 7 29 -2 39 -8 41 -23 3 -19
-2 -20 -93 -15 -52 3 -95 8 -95 13 0 4 0 11 0 17 0 6 9 6 25 0 15 -6 35 -6 54
1z m-1179 -51 c0 -5 -7 -10 -15 -10 -8 0 -15 5 -15 10 0 6 7 10 15 10 8 0 15
-4 15 -10z m2779 -42 c17 -18 31 -36 31 -39 0 -9 -97 -89 -107 -89 -4 1 -26
25 -47 55 -22 30 -43 55 -48 55 -4 0 -8 8 -8 17 0 14 3 13 23 -5 31 -29 48
-28 82 8 16 17 32 30 36 30 5 0 22 -15 38 -32z m-2474 5 c33 -16 36 -16 48 1
12 16 20 13 121 -36 60 -29 108 -57 107 -63 -4 -17 -35 -8 -127 36 -70 34 -88
40 -95 28 -4 -8 -15 -23 -24 -34 -16 -20 -16 -20 -12 3 4 18 -3 28 -34 49 -57
38 -48 47 16 16z m-250 -3 c3 -5 2 -10 -4 -10 -5 0 -13 5 -16 10 -3 6 -2 10 4
10 5 0 13 -4 16 -10z m-190 -20 c10 -11 24 -20 32 -20 7 0 13 -4 13 -9 0 -5
15 -18 32 -29 27 -17 30 -22 16 -27 -22 -9 -127 72 -128 98 0 13 17 7 35 -13z
m2396 -6 c16 -14 20 -14 48 0 37 20 41 20 41 2 0 -7 -14 -19 -30 -26 -27 -11
-30 -16 -25 -44 5 -27 4 -29 -7 -12 -42 62 -34 61 -133 16 -100 -44 -125 -49
-125 -22 0 13 22 27 83 51 45 19 86 38 92 42 14 14 37 11 56 -7z m-2057 -60
c45 -25 62 -41 54 -50 -6 -5 -66 24 -73 37 -4 5 -19 9 -36 9 -29 0 -40 14 -16
23 20 9 23 8 71 -19z m2426 12 c0 -2 3 -11 6 -20 5 -12 0 -16 -19 -16 -13 0
-41 -12 -63 -26 -36 -25 -38 -25 -51 -7 -13 16 -12 18 9 21 13 2 37 14 53 27
26 21 65 34 65 21z m-145 -16 c3 -5 1 -10 -4 -10 -6 0 -11 5 -11 10 0 6 2 10
4 10 3 0 8 -4 11 -10z m-1686 -58 c64 -18 107 -35 113 -45 12 -23 3 -22 -112
8 -123 32 -126 32 -135 -7 -7 -29 -9 -30 -12 -10 -3 15 -17 28 -44 38 -21 9
-39 21 -39 26 0 6 8 7 18 3 9 -4 32 -9 50 -12 25 -4 32 -2 32 11 0 21 7 20
129 -12z m-633 -9 c27 -14 51 -28 53 -30 3 -2 -3 -11 -12 -20 -11 -11 -17 -13
-17 -5 0 20 -79 64 -103 57 -21 -6 -22 -6 -3 9 26 21 25 21 82 -11z m2498 4
c-7 -16 -81 -67 -97 -67 -7 0 -18 9 -25 20 -11 18 -10 20 10 20 13 0 41 11 62
25 40 24 60 25 50 2z m-2324 -12 c43 -22 65 -45 43 -45 -16 0 -113 52 -113 60
0 16 17 12 70 -15z m1599 8 c8 -15 14 -16 43 -5 44 15 58 15 58 -1 0 -8 -18
-20 -39 -27 -27 -9 -41 -20 -44 -34 -3 -18 -6 -16 -18 12 -16 38 -18 38 -129
7 -75 -21 -122 -20 -118 2 2 12 24 21 78 33 41 9 82 19 90 23 31 12 69 7 79
-10z m545 -9 c17 -17 22 -39 7 -29 -12 7 -101 -36 -101 -48 0 -5 -7 -4 -15 3
-8 7 -15 18 -15 25 0 7 -10 19 -22 28 -13 8 -19 19 -15 23 5 5 16 -2 26 -15
17 -22 20 -23 55 -10 21 7 42 19 48 26 13 16 13 16 32 -3z m-2317 -60 c23 -6
29 -15 17 -27 -10 -10 -78 22 -96 46 -27 35 -21 39 19 11 20 -13 47 -27 60
-30z m265 11 c0 -5 -5 -11 -11 -13 -6 -2 -11 4 -11 13 0 9 5 15 11 13 6 -2 11
-8 11 -13z m761 -1 c36 -5 52 -12 64 -30 12 -19 24 -24 59 -24 24 0 44 -4 44
-10 0 -5 -24 -10 -54 -10 -44 0 -56 3 -61 18 -5 16 -20 20 -117 25 -111 7
-137 14 -123 37 7 11 51 10 188 -6z m1052 5 c11 -17 -1 -21 -15 -4 -8 9 -8 15
-2 15 6 0 14 -5 17 -11z m-642 -19 c12 -18 21 -20 57 -14 58 10 50 -17 -9 -30
-34 -7 -42 -13 -38 -28 3 -10 1 -18 -4 -18 -5 0 -11 12 -15 28 -11 50 -14 54
-32 47 -9 -4 -61 -9 -114 -12 -95 -6 -98 -5 -98 15 0 23 19 26 172 30 57 2 69
-1 81 -18z m913 -5 c-2 -15 -78 -75 -96 -75 -5 0 -14 9 -20 20 -8 15 -8 20 2
20 7 0 35 11 62 25 58 29 55 29 52 10z m-2016 -10 c0 -8 -4 -15 -10 -15 -5 0
-10 7 -10 15 0 8 5 15 10 15 6 0 10 -7 10 -15z m493 5 c12 0 17 -8 17 -26 0
-23 -1 -24 -16 -10 -8 9 -25 16 -38 16 -12 0 -31 7 -42 16 -18 14 -17 15 21
10 22 -3 48 -6 58 -6z m-418 -30 c3 -5 -1 -10 -9 -10 -9 0 -16 5 -16 10 0 6 4
10 9 10 6 0 13 -4 16 -10z m1538 -4 c4 -10 1 -13 -9 -9 -15 6 -19 23 -5 23 5
0 11 -7 14 -14z m147 -17 c0 -11 -61 -39 -85 -39 -29 0 -15 21 27 40 42 18 58
18 58 -1z m-210 1 c0 -5 -4 -10 -10 -10 -5 0 -10 5 -10 10 0 6 5 10 10 10 6 0
10 -4 10 -10z m-1290 -35 c0 -8 -4 -15 -10 -15 -5 0 -10 7 -10 15 0 8 5 15 10
15 6 0 10 -7 10 -15z m1283 -50 c44 -25 60 -45 37 -45 -5 0 -32 14 -58 30 -27
17 -54 30 -59 30 -14 0 -44 35 -36 43 3 4 20 -2 37 -12 17 -10 52 -31 79 -46z
m-149 40 c7 -19 -5 -24 -66 -27 -59 -4 -66 11 -13 28 55 17 72 16 79 -1z
m-1396 -64 c5 -15 -21 -14 -55 3 -15 8 -40 19 -55 25 -16 6 -28 17 -28 25 0
12 14 9 67 -14 37 -15 69 -33 71 -39z m427 52 c64 -5 85 -12 85 -29 0 -10 -6
-13 -17 -10 -10 3 -42 10 -71 16 -61 11 -75 18 -66 31 3 5 11 6 17 2 6 -4 30
-8 52 -10z m1375 -3 c0 -14 -55 -40 -85 -40 -35 0 -31 18 8 35 37 17 77 19 77
5z m-632 -30 c2 -12 -8 -15 -45 -15 -27 0 -57 -3 -68 -5 -13 -3 -20 1 -23 12
-2 12 5 18 30 21 61 8 103 3 106 -13z m-855 -16 c21 -3 36 -11 34 -18 -2 -6
-9 -11 -15 -10 -7 1 -23 2 -36 3 -13 0 -34 10 -47 22 l-24 20 25 -5 c14 -2 42
-8 63 -12z m352 6 c3 -5 1 -10 -4 -10 -6 0 -11 5 -11 10 0 6 2 10 4 10 3 0 8
-4 11 -10z m335 -2 c0 -9 -23 -14 -75 -16 -61 -2 -75 1 -75 13 0 12 15 15 75
15 53 0 75 -4 75 -12z m-180 -8 c0 -5 -2 -10 -4 -10 -3 0 -8 5 -11 10 -3 6 -1
10 4 10 6 0 11 -4 11 -10z m580 -14 c0 -7 -10 -16 -22 -20 -60 -16 -115 4 -66
23 36 15 88 13 88 -3z m-922 -12 c21 -6 13 -24 -12 -24 -44 0 -86 12 -86 25 0
12 58 12 98 -1z m145 -24 c15 0 27 -5 27 -10 0 -17 -122 -8 -128 9 -4 11 3 13
34 8 22 -4 51 -7 67 -7z m144 -10 c66 0 49 -21 -20 -24 -51 -3 -57 -1 -57 17
0 13 5 17 16 13 9 -3 36 -6 61 -6z m-444 -19 c6 -6 8 -13 5 -16 -9 -9 -86 14
-94 27 -9 14 74 4 89 -11z m1097 -5 c0 -7 -14 -16 -31 -20 -51 -10 -79 -7 -79
8 0 19 15 24 68 25 29 1 42 -3 42 -13z m-990 -7 c48 -10 69 -29 33 -29 -46 0
-93 14 -93 26 0 17 -3 17 60 3z m630 1 c0 -5 -4 -10 -10 -10 -5 0 -10 5 -10
10 0 6 5 10 10 10 6 0 10 -4 10 -10z m-457 -26 c49 -9 48 -24 -2 -24 -44 0
-71 8 -71 21 0 10 20 11 73 3z m565 -6 c-7 -20 -84 -33 -103 -18 -24 20 -7 30
51 30 40 0 55 -4 52 -12z m-370 -15 c6 -20 -94 -17 -102 3 -5 13 3 15 46 12
30 -2 53 -8 56 -15z m192 7 c23 -16 -6 -30 -61 -30 -41 0 -78 18 -65 31 10 9
112 8 126 -1z"/>
<path d="M1720 4762 c0 -10 -4 -22 -9 -27 -13 -15 -24 -68 -11 -60 5 3 10 15
10 26 0 11 7 22 15 25 17 7 21 54 5 54 -5 0 -10 -8 -10 -18z"/>
<path d="M1592 4145 c0 -16 2 -22 5 -12 2 9 2 23 0 30 -3 6 -5 -1 -5 -18z"/>
<path d="M5015 5860 c-3 -11 -10 -20 -15 -20 -4 0 -11 -11 -14 -24 -3 -13 -8
-31 -11 -39 -4 -9 5 -18 27 -26 18 -7 41 -17 51 -23 11 -5 20 -8 21 -6 7 10
46 108 46 116 0 8 -74 42 -92 42 -4 0 -10 -9 -13 -20z"/>
<path d="M3203 5965 l-32 -14 22 -55 c25 -64 51 -73 92 -32 22 22 23 28 13 58
-21 62 -36 69 -95 43z"/>
<path d="M2828 5794 c-17 -9 -25 -20 -22 -29 12 -30 74 -8 74 25 0 24 -15 25
-52 4z"/>
<path d="M5293 5684 c-6 -16 9 -33 49 -55 13 -7 20 -4 28 11 9 17 7 24 -12 40
-28 24 -57 25 -65 4z"/>
<path d="M5503 5447 c-22 -28 -20 -35 16 -71 l37 -36 22 23 23 24 -45 36 c-33
28 -46 34 -53 24z"/>
<path d="M5659 5394 c-24 -29 26 -79 53 -53 13 12 13 17 -5 41 -24 32 -30 34
-48 12z"/>
<path d="M3777 5493 c-11 -11 14 -33 38 -33 24 0 49 22 38 33 -3 4 -21 7 -38
7 -17 0 -35 -3 -38 -7z"/>
<path d="M3575 5383 c-68 -15 -239 -80 -318 -119 -95 -48 -267 -154 -267 -165
0 -4 9 -9 21 -12 14 -4 44 10 96 45 131 88 443 221 474 203 5 -4 9 -17 9 -31
0 -21 4 -25 23 -22 19 3 22 10 25 56 3 56 -1 59 -63 45z"/>
<path d="M3776 5355 c4 -9 19 -15 40 -15 24 0 34 5 34 15 0 11 -11 15 -40 15
-31 0 -38 -3 -34 -15z"/>
<path d="M3538 5303 c-29 -7 -21 -25 10 -21 15 2 26 7 25 13 -2 12 -12 14 -35
8z"/>
<path d="M4306 5251 c-10 -16 17 -28 116 -55 148 -40 282 -102 438 -203 87
-57 259 -216 306 -285 15 -20 31 -35 36 -32 5 3 15 0 23 -6 8 -7 15 -9 15 -5
0 14 -52 78 -124 154 -195 203 -422 337 -712 421 -80 23 -90 24 -98 11z"/>
<path d="M3815 5220 c-14 -22 10 -30 86 -30 72 0 79 2 79 20 0 18 -7 20 -79
20 -44 0 -83 -4 -86 -10z"/>
<path d="M3440 5187 c-14 -6 -54 -24 -90 -40 -90 -40 -133 -68 -123 -78 6 -6
58 14 125 46 64 30 121 55 127 55 6 0 11 7 11 15 0 17 -15 18 -50 2z"/>
<path d="M3815 5160 c-14 -22 9 -30 86 -30 71 0 80 2 77 18 -3 14 -16 17 -80
20 -45 2 -79 -1 -83 -8z"/>
<path d="M3437 5125 c-68 -25 -176 -87 -182 -104 -6 -19 -112 -85 -138 -86
-17 0 -145 -103 -146 -117 -1 -5 11 -8 25 -8 17 0 44 16 75 44 76 69 255 183
342 218 56 23 77 37 77 50 0 21 -3 21 -53 3z"/>
<path d="M4302 5124 c4 -21 16 -27 113 -53 259 -71 566 -291 706 -507 33 -51
61 -83 72 -84 36 0 11 46 -94 175 -169 208 -390 357 -661 446 -134 44 -141 45
-136 23z"/>
<path d="M3838 5103 c-16 -2 -28 -11 -28 -19 0 -11 18 -14 85 -14 66 0 85 3
85 14 0 24 -56 32 -142 19z"/>
<path d="M3445 5057 c-12 -10 -15 -16 -6 -21 16 -10 51 3 51 20 0 18 -21 18
-45 1z"/>
<path d="M3815 5030 c-14 -22 10 -30 86 -30 72 0 79 2 79 20 0 18 -7 20 -79
20 -44 0 -83 -4 -86 -10z"/>
<path d="M3463 4991 c-14 -23 -109 -71 -140 -71 -22 0 -90 -39 -153 -90 l-25
-20 31 0 c20 0 50 14 86 38 30 22 93 58 141 82 79 40 101 60 79 74 -4 2 -13
-3 -19 -13z"/>
<path d="M4306 5002 c-3 -3 -6 -16 -6 -29 0 -21 4 -24 33 -21 42 4 46 38 5 49
-15 4 -29 4 -32 1z"/>
<path d="M2988 4915 c-165 -139 -310 -339 -401 -555 -62 -147 -96 -309 -103
-490 l-6 -145 60 -59 60 -58 208 6 c115 3 230 6 256 5 34 0 49 5 57 18 9 16
10 16 11 2 0 -23 21 -29 96 -29 57 0 64 2 64 20 0 18 -7 20 -62 20 -66 1 -106
18 -87 37 8 8 7 13 0 17 -6 4 -11 3 -11 -2 0 -5 -17 -7 -37 -3 -65 10 -108 3
-118 -22 -10 -21 -16 -22 -165 -24 l-155 -3 -69 64 -69 64 6 104 c19 308 139
615 329 840 26 31 48 61 48 66 0 5 11 17 24 26 14 8 35 26 48 38 13 13 45 42
71 66 26 23 47 47 47 52 0 22 -29 6 -102 -55z"/>
<path d="M3265 4966 c-32 -18 -137 -93 -175 -125 -33 -29 -34 -30 -11 -31 14
0 57 25 103 60 44 33 84 60 89 60 12 0 31 38 22 43 -5 2 -17 -1 -28 -7z"/>
<path d="M3815 4970 c-14 -22 10 -30 86 -30 72 0 79 2 79 20 0 18 -7 20 -79
20 -44 0 -83 -4 -86 -10z"/>
<path d="M4382 4968 c5 -15 37 -18 41 -3 1 6 -9 12 -22 13 -16 3 -22 -1 -19
-10z"/>
<path d="M3405 4902 c-38 -21 -88 -50 -110 -65 l-40 -27 117 0 116 0 4 43 c4
46 -1 87 -11 87 -3 0 -37 -17 -76 -38z"/>
<path d="M4302 4908 c3 -7 19 -14 37 -16 24 -3 32 0 29 10 -3 7 -19 14 -37 16
-24 3 -32 0 -29 -10z"/>
<path d="M3820 4895 c0 -12 16 -15 80 -15 64 0 80 3 80 15 0 12 -16 15 -80 15
-64 0 -80 -3 -80 -15z"/>
<path d="M4310 4840 c0 -25 4 -30 24 -30 31 0 42 36 16 50 -31 16 -40 12 -40
-20z"/>
<path d="M4380 4840 c0 -27 3 -31 23 -28 16 2 22 10 22 28 0 18 -6 26 -22 28
-20 3 -23 -1 -23 -28z"/>
<path d="M3820 4830 c0 -18 7 -20 80 -20 73 0 80 2 80 20 0 18 -7 20 -80 20
-73 0 -80 -2 -80 -20z"/>
<path d="M2840 4682 c-186 -249 -284 -507 -297 -778 l-6 -111 59 -57 59 -56
147 0 c136 0 177 7 146 26 -7 4 -62 10 -123 12 l-110 4 -67 65 -66 66 5 51 c7
81 32 215 54 289 43 146 141 340 225 444 34 41 46 93 22 93 -7 -1 -29 -22 -48
-48z"/>
<path d="M2867 4608 c-135 -178 -227 -410 -258 -651 l-12 -89 64 -64 63 -64
111 0 c60 1 130 5 155 10 25 4 50 5 55 0 16 -12 48 -9 66 7 14 12 17 12 23 -2
5 -13 19 -15 78 -13 88 4 94 22 8 26 -47 2 -62 7 -70 23 -6 11 -8 24 -5 29 4
6 -25 9 -75 8 -55 -2 -80 -6 -80 -14 0 -33 -31 -44 -120 -44 l-89 0 -70 68
c-68 66 -70 70 -65 108 29 213 102 411 215 583 27 41 49 80 49 87 0 27 -20 23
-43 -8z m176 -805 c-24 -5 -32 -23 -11 -23 6 0 9 -3 6 -6 -4 -3 -16 0 -28 6
-18 10 -20 14 -9 21 8 5 25 8 39 7 23 -1 24 -1 3 -5z m57 -13 c0 -5 -5 -10
-11 -10 -5 0 -7 5 -4 10 3 6 8 10 11 10 2 0 4 -4 4 -10z"/>
<path d="M2843 4473 c-100 -175 -165 -364 -174 -511 -3 -41 0 -47 55 -103 l58
-59 84 0 c77 0 84 2 84 20 0 18 -7 20 -59 20 l-59 0 -57 70 c-56 69 -57 71
-50 118 15 101 119 371 165 427 13 16 16 78 4 82 -7 2 -29 -27 -51 -64z"/>
<path d="M5303 4529 c-8 -8 -2 -27 23 -70 19 -32 41 -78 49 -101 9 -24 19 -52
25 -63 22 -48 59 -187 70 -267 9 -64 18 -94 33 -111 12 -13 44 -48 70 -79 l49
-57 224 0 c123 0 224 2 224 4 0 2 -14 11 -32 19 -24 13 -66 16 -195 16 l-164
0 -79 82 c-75 78 -79 85 -90 147 -23 135 -67 267 -128 392 -48 95 -59 108 -79
88z"/>
<path d="M2908 4456 c-53 -96 -98 -190 -116 -241 -25 -74 -52 -180 -52 -207 0
-25 88 -136 114 -144 10 -3 52 -3 92 1 54 5 74 11 74 21 0 11 -15 14 -64 14
-61 0 -65 1 -99 39 -70 77 -72 83 -53 154 41 150 186 437 186 368 0 -4 -9 -20
-20 -34 -33 -42 -98 -176 -124 -256 -42 -130 -42 -131 4 -190 l40 -51 200 0
c127 0 200 4 200 10 0 6 -55 10 -145 10 l-145 0 -71 68 -71 67 20 67 c12 37
25 75 31 85 5 10 22 45 37 78 16 33 45 84 66 113 l39 52 -65 0 c-58 0 -66 -3
-78 -24z"/>
<path d="M3022 4418 c-49 -75 -116 -215 -132 -277 l-12 -44 58 -58 58 -59 149
0 c114 0 148 3 145 13 -3 8 -38 14 -106 17 l-102 5 -65 70 c-36 38 -65 74 -65
80 0 19 80 178 119 235 57 84 56 80 23 80 -25 0 -36 -9 -70 -62z"/>
<path d="M3130 4470 c0 -5 -16 -31 -36 -57 -37 -49 -124 -216 -124 -239 0 -7
25 -40 56 -73 l56 -61 98 0 c80 0 99 3 104 16 10 26 -3 34 -53 34 -47 0 -49 1
-114 75 l-66 75 56 90 55 90 59 0 c59 0 59 0 59 30 l0 30 -75 0 c-43 0 -75 -4
-75 -10z"/>
<path d="M3187 4384 c-10 -11 3 -24 24 -24 10 0 19 7 19 15 0 15 -31 21 -43 9z"/>
<path d="M3255 4368 c17 -56 2 -88 -42 -88 -16 0 -23 -6 -23 -20 0 -22 34 -28
46 -9 10 17 32 -28 26 -57 -5 -26 -26 -34 -59 -23 -14 5 -23 4 -27 -4 -9 -22
-27 17 -19 43 8 30 10 170 3 170 -7 0 -66 -97 -76 -123 -5 -13 10 -34 59 -82
67 -67 83 -76 93 -50 6 14 8 13 20 -2 22 -29 29 -3 27 99 -1 51 -2 110 -2 131
-1 27 -5 37 -17 37 -12 0 -15 -6 -9 -22z"/>
<path d="M3301 4104 c0 -11 3 -14 6 -6 3 7 2 16 -1 19 -3 4 -6 -2 -5 -13z"/>
<path d="M3303 3970 c0 -47 2 -66 4 -42 2 23 2 61 0 85 -2 23 -4 4 -4 -43z"/>
<path d="M3040 3884 c0 -11 8 -14 32 -12 46 4 49 28 4 28 -26 0 -36 -4 -36
-16z"/>
<path d="M3130 3886 c0 -21 30 -28 103 -25 49 2 63 -1 65 -12 2 -13 -8 -15
-58 -11 -67 5 -92 -6 -71 -32 10 -12 27 -14 72 -10 l59 5 0 -43 0 -44 -65 4
c-61 4 -65 3 -65 -17 0 -19 5 -21 65 -21 58 0 65 -2 65 -19 0 -11 4 -22 9 -25
4 -3 9 47 10 112 2 146 -2 152 -114 152 -58 0 -75 -3 -75 -14z"/>
<path d="M2300 5384 l-32 -36 48 -49 48 -49 33 32 c18 18 33 38 33 46 0 14
-76 92 -89 92 -4 0 -23 -16 -41 -36z"/>
<path d="M5889 5087 c-8 -7 -27 -22 -42 -33 l-27 -22 23 -41 c12 -22 25 -41
29 -41 5 0 32 17 60 37 29 20 55 38 57 39 1 2 -9 19 -24 38 -29 38 -49 44 -76
23z"/>
<path d="M1979 4953 c-13 -21 -25 -41 -27 -45 -3 -5 101 -78 112 -78 4 0 56
78 56 85 0 6 -102 75 -111 75 -4 0 -18 -17 -30 -37z"/>
<path d="M6046 4847 c-17 -13 -17 -15 -2 -45 20 -40 29 -44 51 -28 18 13 18
15 1 50 -19 40 -24 42 -50 23z"/>
<path d="M6204 4416 c-8 -21 10 -70 27 -73 29 -6 41 12 32 48 -10 37 -48 53
-59 25z"/>
<path d="M3958 4223 c6 -2 18 -2 25 0 6 3 1 5 -13 5 -14 0 -19 -2 -12 -5z"/>
<path d="M4002 4143 c5 -26 38 -29 38 -4 0 15 -6 21 -21 21 -14 0 -19 -5 -17
-17z"/>
<path d="M3910 4077 c0 -19 10 -27 26 -20 21 8 17 33 -6 33 -11 0 -20 -6 -20
-13z"/>
<path d="M1765 4438 c-20 -62 -22 -87 -8 -92 31 -12 41 -5 53 40 11 39 11 47
-1 55 -20 12 -39 11 -44 -3z"/>
<path d="M1855 4422 c-15 -10 -36 -85 -27 -93 22 -22 45 -13 58 23 11 33 11
40 -4 58 -9 11 -22 17 -27 12z"/>
<path d="M3885 4340 c3 -5 8 -10 11 -10 2 0 4 5 4 10 0 6 -5 10 -11 10 -5 0
-7 -4 -4 -10z"/>
<path d="M3914 4339 c-3 -6 -2 -15 3 -20 5 -5 9 -1 10 11 2 22 -2 25 -13 9z"/>
<path d="M3990 4335 c0 -8 5 -15 10 -15 6 0 10 7 10 15 0 8 -4 15 -10 15 -5 0
-10 -7 -10 -15z"/>
<path d="M5660 3542 c0 -4 33 -41 74 -81 75 -75 106 -87 106 -41 0 12 -4 18
-10 15 -5 -3 -26 13 -46 35 -21 23 -55 50 -78 61 -45 22 -46 22 -46 11z"/>
<path d="M5782 3514 c35 -35 58 -38 58 -8 0 8 -8 14 -18 14 -10 0 -27 7 -38
15 -37 28 -38 15 -2 -21z"/>
<path d="M6083 3543 c9 -2 23 -2 30 0 6 3 -1 5 -18 5 -16 0 -22 -2 -12 -5z"/>
<path d="M6138 3543 c7 -3 16 -2 19 1 4 3 -2 6 -13 5 -11 0 -14 -3 -6 -6z"/>
<path d="M5553 3480 c-8 -12 -9 -21 -3 -25 6 -3 10 1 10 9 0 19 21 21 40 4 8
-7 6 -3 -4 10 -23 27 -28 27 -43 2z"/>
<path d="M5649 3417 c19 -20 37 -35 39 -33 7 8 -7 24 -41 47 l-32 22 34 -36z"/>
<path d="M5518 3403 c6 -2 18 -2 25 0 6 3 1 5 -13 5 -14 0 -19 -2 -12 -5z"/>
<path d="M5142 3305 c0 -16 2 -22 5 -12 2 9 2 23 0 30 -3 6 -5 -1 -5 -18z"/>
<path d="M1688 3684 c-3 -3 -3 -17 1 -32 11 -41 45 -37 49 6 3 28 0 32 -21 32
-13 0 -26 -3 -29 -6z"/>
<path d="M3910 3185 c0 -8 7 -15 15 -15 8 0 15 7 15 15 0 8 -7 15 -15 15 -8 0
-15 -7 -15 -15z"/>
<path d="M2998 2905 c-3 -14 -1 -25 3 -25 5 0 9 11 9 25 0 14 -2 25 -4 25 -2
0 -6 -11 -8 -25z"/>
<path d="M1930 2815 c0 -28 23 -65 41 -65 26 0 32 17 17 50 -14 32 -58 43 -58
15z"/>
<path d="M4415 2559 c-44 -15 -88 -28 -98 -28 -11 -1 -17 -7 -14 -13 2 -7 16
-12 31 -10 43 5 179 56 184 70 5 17 -10 14 -103 -19z"/>
<path d="M4790 2559 c-25 -16 -51 -29 -57 -29 -7 0 -13 -6 -13 -14 0 -7 -40
-31 -88 -54 -76 -34 -127 -51 -301 -101 -14 -4 -27 -13 -29 -20 -6 -17 33 -10
153 24 207 60 437 190 388 218 -5 3 -28 -8 -53 -24z"/>
<path d="M2017 2673 c-11 -11 -8 -27 12 -52 15 -20 21 -22 39 -12 21 11 21 13
7 41 -14 28 -43 39 -58 23z"/>
<path d="M3827 2543 c-18 -17 19 -33 77 -33 64 0 93 10 82 29 -8 12 -148 16
-159 4z"/>
<path d="M5415 2053 c-28 -7 -55 -33 -55 -54 0 -28 22 -28 62 0 50 35 46 66
-7 54z"/>
</g>
</svg>
